<?xml version='1.0' encoding='UTF-8'?>
<svg xmlns="http://www.w3.org/2000/svg" viewBox="55 40 590 410" width="590" height="410">
  <defs>
    <clipPath id="front-clip" clipPathUnits="userSpaceOnUse">
      <rect x="55" y="40" width="590" height="410"/>
    </clipPath>
  </defs>
  <g clip-path="url(#front-clip)"><g id="details">
	<g id="detail_205">
		<path fill="none" stroke="#00B9D2" stroke-width="2" stroke-linecap="round" stroke-linejoin="round" stroke-miterlimit="10" d="    M299.314,234.406c0.029-12.563-6.426-24.491-16.959-31.337c-19.248-12.518-45.014-5.03-54.554,15.855    c-4.459,9.736-4.459,21.229,0,30.965c9.54,20.885,35.307,28.373,54.554,15.855C292.888,258.897,299.344,246.968,299.314,234.406z"/>
	</g>
	<g id="detail_204">
		
			<rect x="348.697" y="289.472" fill="none" stroke="#00B9D2" stroke-width="2" stroke-linecap="round" stroke-linejoin="round" stroke-miterlimit="10" width="9.4" height="2.393"/>
	</g>
	<g id="detail_203">
		<path fill="none" stroke="#00B9D2" stroke-width="2" stroke-linecap="round" stroke-linejoin="round" stroke-miterlimit="10" d="    M356.465,192.997c0.001-0.677-0.23-1.351-0.647-1.885c-0.414-0.535-1.012-0.925-1.668-1.09c-1.924-0.488-3.804,0.963-3.821,2.948    c-0.017,2.007,1.875,3.494,3.821,3.001c0.656-0.165,1.254-0.555,1.668-1.09C356.235,194.349,356.467,193.674,356.465,192.997z"/>
	</g>
	<g id="detail_202">
		<path fill="none" stroke="#00B9D2" stroke-width="2" stroke-linecap="round" stroke-linejoin="round" stroke-miterlimit="10" d="    M345.843,192.997c0.001-0.677-0.23-1.351-0.647-1.885c-0.414-0.535-1.012-0.925-1.668-1.09c-1.924-0.488-3.804,0.963-3.821,2.948    c-0.017,2.007,1.875,3.494,3.821,3.001c0.656-0.165,1.254-0.555,1.668-1.09C345.613,194.349,345.844,193.674,345.843,192.997z"/>
	</g>
	<g id="detail_201">
		<path fill="none" stroke="#00B9D2" stroke-width="2" stroke-linecap="round" stroke-linejoin="round" stroke-miterlimit="10" d="    M335.22,192.997c0.001-0.677-0.23-1.351-0.647-1.885c-0.414-0.535-1.012-0.925-1.668-1.09c-1.924-0.488-3.804,0.963-3.821,2.948    c-0.017,2.007,1.875,3.494,3.821,3.001c0.656-0.165,1.254-0.555,1.668-1.09C334.99,194.349,335.222,193.674,335.22,192.997z"/>
	</g>
	<g id="detail_200">
		<path fill="none" stroke="#00B9D2" stroke-width="2" stroke-linecap="round" stroke-linejoin="round" stroke-miterlimit="10" d="    M361.776,201.929c0.001-0.677-0.23-1.351-0.647-1.885c-0.414-0.535-1.012-0.925-1.668-1.09c-1.924-0.488-3.804,0.963-3.821,2.948    c-0.017,2.007,1.875,3.494,3.821,3.001c0.656-0.165,1.254-0.555,1.668-1.09C361.546,203.281,361.778,202.606,361.776,201.929z"/>
	</g>
	<g id="detail_199">
		<path fill="none" stroke="#00B9D2" stroke-width="2" stroke-linecap="round" stroke-linejoin="round" stroke-miterlimit="10" d="    M351.154,201.929c0.001-0.677-0.23-1.351-0.647-1.885c-0.414-0.535-1.012-0.925-1.668-1.09c-1.924-0.488-3.804,0.963-3.821,2.948    c-0.017,2.007,1.875,3.494,3.821,3.001c0.656-0.165,1.254-0.555,1.668-1.09C350.924,203.281,351.155,202.606,351.154,201.929z"/>
	</g>
	<g id="detail_198">
		<path fill="none" stroke="#00B9D2" stroke-width="2" stroke-linecap="round" stroke-linejoin="round" stroke-miterlimit="10" d="    M340.532,201.929c0.001-0.677-0.23-1.351-0.647-1.885c-0.414-0.535-1.012-0.925-1.668-1.09c-1.924-0.488-3.804,0.963-3.821,2.948    c-0.017,2.007,1.875,3.494,3.821,3.001c0.656-0.165,1.254-0.555,1.668-1.09C340.301,203.281,340.533,202.606,340.532,201.929z"/>
	</g>
	<g id="detail_197">
		<path fill="none" stroke="#00B9D2" stroke-width="2" stroke-linecap="round" stroke-linejoin="round" stroke-miterlimit="10" d="    M360.951,192.997c-0.001-0.677,0.23-1.351,0.647-1.885c0.414-0.535,1.012-0.925,1.668-1.09c1.924-0.488,3.804,0.963,3.821,2.948    c0.017,2.007-1.875,3.494-3.821,3.001c-0.656-0.165-1.254-0.555-1.668-1.09C361.181,194.349,360.95,193.674,360.951,192.997z"/>
	</g>
	<g id="detail_196">
		<path fill="none" stroke="#00B9D2" stroke-width="2" stroke-linecap="round" stroke-linejoin="round" stroke-miterlimit="10" d="    M371.574,192.997c-0.001-0.677,0.23-1.351,0.647-1.885c0.414-0.535,1.012-0.925,1.668-1.09c1.924-0.488,3.804,0.963,3.821,2.948    c0.017,2.007-1.875,3.494-3.821,3.001c-0.656-0.165-1.254-0.555-1.668-1.09C371.804,194.349,371.572,193.674,371.574,192.997z"/>
	</g>
	<g id="detail_195">
		<path fill="none" stroke="#00B9D2" stroke-width="2" stroke-linecap="round" stroke-linejoin="round" stroke-miterlimit="10" d="    M366.262,201.929c-0.001-0.677,0.23-1.351,0.647-1.885c0.414-0.535,1.012-0.925,1.668-1.09c1.924-0.488,3.804,0.963,3.821,2.948    c0.017,2.007-1.875,3.494-3.821,3.001c-0.656-0.165-1.254-0.555-1.668-1.09C366.493,203.281,366.261,202.606,366.262,201.929z"/>
	</g>
	<g id="detail_194">
		<path fill="none" stroke="#00B9D2" stroke-width="2" stroke-linecap="round" stroke-linejoin="round" stroke-miterlimit="10" d="    M371.148,237.545c-0.422,0.514-1.014,0.858-1.597,1.16c-0.325,0.162-0.67,0.317-1.013,0.437c-3.909,1.404-8.953,3.216-12.861,4.62    c-0.027-1.039,0-2.39-0.009-3.435c2.946-1.08,6.724-2.393,9.679-3.46c0.239-0.093,0.502-0.22,0.68-0.394    c0.016-0.016,0.021-0.021,0.021-0.021c0.015-0.016,0.019-0.021,0.019-0.021c0.013-0.016,0.018-0.021,0.018-0.021    c0.012-0.016,0.016-0.021,0.016-0.021c0.011-0.016,0.015-0.021,0.015-0.021c0.01-0.016,0.013-0.021,0.013-0.021    c0.009-0.016,0.012-0.021,0.012-0.021c0.008-0.016,0.011-0.021,0.011-0.021c0.007-0.016,0.009-0.021,0.009-0.021    c0.006-0.016,0.008-0.021,0.008-0.021c0.005-0.016,0.006-0.021,0.006-0.021c0.004-0.016,0.005-0.021,0.005-0.021    c0.003-0.016,0.003-0.021,0.003-0.021c0.002-0.015,0.002-0.021,0.002-0.021c0.001-0.015,0.001-0.02,0.001-0.02    c-0.001-0.015-0.001-0.02-0.001-0.02c-0.002-0.015-0.002-0.02-0.002-0.02c-0.003-0.015-0.004-0.02-0.004-0.02    c-0.004-0.015-0.005-0.02-0.005-0.02c-0.005-0.015-0.007-0.02-0.007-0.02c-0.006-0.015-0.008-0.02-0.008-0.02    c-0.007-0.015-0.01-0.019-0.01-0.019c-0.008-0.014-0.011-0.019-0.011-0.019c-0.009-0.014-0.013-0.019-0.013-0.019    c-0.01-0.014-0.014-0.019-0.014-0.019c-0.016-0.019-0.02-0.023-0.02-0.023c-0.018-0.018-0.022-0.023-0.022-0.023    c-0.014-0.014-0.019-0.018-0.019-0.018c-0.016-0.013-0.021-0.018-0.021-0.018c-0.017-0.013-0.022-0.018-0.022-0.018    c-0.346-0.24-0.813-0.301-1.218-0.341c-0.732-0.055-1.479,0.009-2.193,0.177c-0.182,0.044-0.367,0.097-0.543,0.161    c-1.94,0.683-4.425,1.558-6.365,2.242c-0.036-0.011-0.011-0.12-0.018-0.147c0,0,0-0.405,0-0.405c0-0.865,0-2.148,0-3.009    c1.384-0.517,2.867-0.811,4.329-1.017c1.535-0.21,3.108-0.202,4.646-0.027c1.39,0.162,2.783,0.459,4.094,0.954    c0.768,0.25,1.551,0.56,2.159,1.107c0.266,0.243,0.501,0.571,0.561,0.925C371.526,236.87,371.386,237.248,371.148,237.545z"/>
	</g>
	<g id="ps">
		<path fill="none" stroke="#00B9D2" stroke-width="2" stroke-linecap="round" stroke-linejoin="round" stroke-miterlimit="10" d="    M356.907,231.674c-0.001-2.727,0.001-6.188-0.001-8.915c-0.003-0.247-0.018-0.5-0.058-0.744c-0.05-0.319-0.161-0.669-0.355-0.922    c-0.195-0.259-0.452-0.413-0.749-0.496c-0.042-0.013-0.078-0.022-0.103-0.027c-0.188-0.042-0.379-0.017-0.532,0.072    c-0.019,0.011-0.025,0.015-0.025,0.015c-0.018,0.012-0.025,0.016-0.025,0.016c-0.018,0.013-0.024,0.017-0.024,0.017    c-0.018,0.014-0.023,0.018-0.023,0.018c-0.017,0.014-0.023,0.019-0.023,0.019c-0.017,0.015-0.022,0.02-0.022,0.02    c-0.301,0.296-0.385,0.704-0.42,1.101c-0.024,6.819,0,15.482-0.008,22.302c-1.811-0.528-4.128-1.31-5.938-1.869    c-0.05-8.013,0-18.308-0.017-26.335c2.469,0.477,4.988,1.224,7.386,1.98c1.921,0.625,3.918,1.346,5.423,2.742    c0.697,0.65,1.238,1.466,1.569,2.36c0.438,1.172,0.562,2.441,0.578,3.684c0.021,1.602-0.237,3.361-1.374,4.573    c-0.602,0.641-1.45,1.012-2.325,1.061C358.823,232.411,357.815,232.111,356.907,231.674z"/>
	</g>
	<g id="detail_192">
		<path fill="none" stroke="#00B9D2" stroke-width="2" stroke-linecap="round" stroke-linejoin="round" stroke-miterlimit="10" d="    M337.655,239.956c-0.881-0.257-1.829-0.638-2.412-1.378c-0.281-0.359-0.415-0.834-0.277-1.261c0.172-0.559,0.662-0.88,1.13-1.167    c0.875-0.521,1.831-0.919,2.791-1.252c2.603-0.926,5.934-2.11,8.537-3.036c0.004,1.051,0,2.399,0.002,3.451    c-1.92,0.719-4.366,1.557-6.291,2.265c-0.222,0.09-0.467,0.213-0.631,0.375c-0.016,0.016-0.021,0.021-0.021,0.021    c-0.014,0.016-0.019,0.021-0.019,0.021c-0.013,0.016-0.018,0.021-0.018,0.021c-0.012,0.016-0.016,0.021-0.016,0.021    c-0.011,0.016-0.015,0.021-0.015,0.021c-0.01,0.016-0.013,0.021-0.013,0.021c-0.009,0.016-0.012,0.021-0.012,0.021    c-0.008,0.016-0.011,0.021-0.011,0.021c-0.007,0.016-0.009,0.021-0.009,0.021c-0.006,0.016-0.008,0.021-0.008,0.021    c-0.005,0.016-0.006,0.021-0.006,0.021c-0.004,0.016-0.005,0.021-0.005,0.021c-0.003,0.016-0.003,0.021-0.003,0.021    c-0.002,0.015-0.002,0.021-0.002,0.021c-0.001,0.015-0.001,0.02-0.001,0.02c0.001,0.015,0.001,0.02,0.001,0.02    c0.002,0.015,0.002,0.02,0.002,0.02c0.003,0.015,0.004,0.02,0.004,0.02c0.004,0.015,0.005,0.02,0.005,0.02    c0.005,0.015,0.007,0.02,0.007,0.02c0.006,0.015,0.008,0.02,0.008,0.02c0.007,0.015,0.01,0.019,0.01,0.019    c0.008,0.014,0.011,0.019,0.011,0.019c0.009,0.014,0.013,0.019,0.013,0.019c0.01,0.014,0.014,0.019,0.014,0.019    c0.016,0.019,0.02,0.023,0.02,0.023c0.018,0.018,0.022,0.023,0.022,0.023c0.014,0.014,0.019,0.018,0.019,0.018    c0.016,0.013,0.021,0.018,0.021,0.018c0.017,0.013,0.022,0.018,0.022,0.018c0.204,0.146,0.419,0.204,0.652,0.259    c0.316,0.068,0.642,0.095,0.964,0.1c0.659,0.007,1.327-0.068,1.964-0.238c1.049-0.334,2.272-0.819,3.312-1.184    c0.024,0.933,0,2.147,0.008,3.085c-1.103,0.223-2.271,0.338-3.401,0.355C341.87,240.973,339.701,240.631,337.655,239.956z"/>
	</g>
	<g id="detail_191">
		<path fill="none" stroke="#00B9D2" stroke-width="2" stroke-linecap="round" stroke-linejoin="round" stroke-miterlimit="10" d="    M407.48,234.406c-0.029-12.563,6.426-24.491,16.959-31.337c19.248-12.518,45.014-5.03,54.554,15.855    c4.459,9.736,4.459,21.229,0,30.965c-9.54,20.885-35.307,28.373-54.554,15.855C413.906,258.897,407.45,246.968,407.48,234.406z"/>
	</g>
	<g id="detail_190">
		<path fill="none" stroke="#00B9D2" stroke-width="2" stroke-linecap="round" stroke-linejoin="round" stroke-miterlimit="10" d="    M768.176,404.253c5.404-29.8,14.108-59.219,25.218-87.379c5.26-13.316,11.749-27.973,18.009-40.844    c8.562-17.875,25.397-48.194,34.966-65.892c8.906-16.881,17.13-34.553,22.065-53.039c3.934-14.598,6.287-29.792,7.326-44.868    c0.905-13.596,0.81-27.458-0.758-41.002"/>
	</g>
</g>
<g id="digital">
	<g id="l3_inner">
		
			<path fill="none" stroke="#00B9D2" stroke-width="2.75" stroke-linecap="round" stroke-linejoin="round" stroke-miterlimit="10" d="    M283,234.406c0.024-7.071-3.635-13.832-9.568-17.68c-10.849-7.064-25.405-2.833-30.778,8.945c-2.514,5.47-2.514,11.999,0,17.47    c5.373,11.778,19.929,16.008,30.778,8.945C279.365,248.238,283.024,241.477,283,234.406z"/>
	</g>
	<g id="l3">
		
			<path fill="none" stroke="#00B9D2" stroke-width="2.75" stroke-linecap="round" stroke-linejoin="round" stroke-miterlimit="10" d="    M295.47,234.406c0.028-11.268-5.769-21.98-15.218-28.119c-17.267-11.233-40.396-4.511-48.952,14.227    c-4.001,8.732-4.001,19.054,0,27.786c8.557,18.738,31.686,25.46,48.952,14.227C289.701,256.386,295.499,245.674,295.47,234.406z"/>
	</g>
	<g id="dpad_right">
		
			<path fill="none" stroke="#00B9D2" stroke-width="2.75" stroke-linecap="round" stroke-linejoin="round" stroke-miterlimit="10" d="    M222.074,163.772c-0.018,2.712-0.644,5.72-2.865,7.496c-1.126,0.913-2.54,1.404-3.962,1.608c-0.914,0.133-1.851,0.158-2.773,0.117    c-0.702-0.011-14.625-1.54-15.597-1.66c-0.409-0.073-0.81-0.214-1.174-0.414c-0.307-0.168-0.593-0.381-0.843-0.626    c0,0-10.915-10.701-10.915-10.701s-0.047-0.047-0.047-0.047l-0.047-0.048c-0.152-0.16-0.295-0.338-0.417-0.522    c-0.675-1.003-0.831-2.327-0.406-3.459c0.146-0.397,0.36-0.772,0.627-1.1c0.098-0.119,0.206-0.238,0.317-0.344    c0,0,11.022-10.59,11.022-10.59c0.028-0.016,0.069-0.072,0.096-0.09c0.228-0.204,0.483-0.384,0.753-0.528    c0.347-0.186,0.726-0.319,1.114-0.391c0.104-0.018,0.22-0.037,0.326-0.046c0,0,14.042-1.38,14.042-1.38    c1.698-0.162,3.446-0.16,5.107,0.268c1.056,0.273,2.077,0.739,2.921,1.437c0.789,0.647,1.41,1.49,1.836,2.415    c0.397,0.857,0.642,1.783,0.784,2.715c0.08,0.529,0.13,1.075,0.152,1.609C222.185,153.237,222.115,160.019,222.074,163.772z"/>
	</g>
	<g id="dpad_up">
		
			<path fill="none" stroke="#00B9D2" stroke-width="2.75" stroke-linecap="round" stroke-linejoin="round" stroke-miterlimit="10" d="    M182.123,110.053c2.712,0.004,5.723,0.616,7.511,2.827c0.918,1.121,1.416,2.533,1.628,3.954c0.138,0.913,0.167,1.85,0.131,2.773    c-0.008,0.702-1.466,14.632-1.582,15.605c-0.071,0.41-0.21,0.811-0.408,1.177c-0.167,0.307-0.378,0.595-0.622,0.846    c0,0-10.646,10.969-10.646,10.969s-0.047,0.048-0.047,0.048s-0.048,0.047-0.048,0.047c-0.159,0.153-0.337,0.297-0.52,0.42    c-0.999,0.68-2.323,0.842-3.457,0.423c-0.398-0.144-0.774-0.356-1.103-0.622c-0.119-0.097-0.239-0.205-0.346-0.316    c0,0-10.646-10.969-10.646-10.969c-0.017-0.028-0.073-0.068-0.09-0.096c-0.205-0.227-0.386-0.481-0.532-0.75    c-0.188-0.346-0.323-0.725-0.397-1.112c-0.019-0.104-0.038-0.22-0.048-0.326c0,0-1.451-14.035-1.451-14.035    c-0.171-1.697-0.177-3.445,0.242-5.108c0.267-1.058,0.728-2.08,1.422-2.928c0.643-0.792,1.483-1.417,2.405-1.848    c0.855-0.401,1.78-0.651,2.711-0.798c0.528-0.083,1.074-0.135,1.608-0.161C171.588,109.996,178.37,110.032,182.123,110.053z"/>
	</g>
	<g id="dpad_left">
		
			<path fill="none" stroke="#00B9D2" stroke-width="2.75" stroke-linecap="round" stroke-linejoin="round" stroke-miterlimit="10" d="    M128.639,150.039c0.004-2.712,0.616-5.723,2.827-7.511c1.121-0.918,2.533-1.416,3.954-1.628c0.913-0.138,1.85-0.167,2.773-0.131    c0.702,0.008,14.632,1.466,15.605,1.582c0.41,0.071,0.811,0.21,1.177,0.408c0.307,0.167,0.595,0.378,0.846,0.622    c0,0,10.969,10.646,10.969,10.646s0.048,0.047,0.048,0.047l0.047,0.048c0.153,0.159,0.297,0.337,0.42,0.52    c0.68,0.999,0.842,2.323,0.423,3.457c-0.144,0.398-0.356,0.774-0.622,1.103c-0.097,0.119-0.205,0.239-0.316,0.346    c0,0-10.969,10.646-10.969,10.646c-0.028,0.017-0.068,0.073-0.096,0.09c-0.227,0.205-0.481,0.386-0.75,0.532    c-0.346,0.188-0.725,0.323-1.112,0.397c-0.104,0.019-0.22,0.038-0.326,0.048c0,0-14.035,1.451-14.035,1.451    c-1.697,0.171-3.445,0.177-5.108-0.242c-1.058-0.267-2.08-0.728-2.928-1.422c-0.792-0.643-1.417-1.483-1.848-2.405    c-0.401-0.855-0.651-1.78-0.798-2.711c-0.083-0.528-0.135-1.074-0.161-1.608C128.582,160.574,128.618,153.792,128.639,150.039z"/>
	</g>
	<g id="dpad_down">
		
			<path fill="none" stroke="#00B9D2" stroke-width="2.75" stroke-linecap="round" stroke-linejoin="round" stroke-miterlimit="10" d="    M168.626,203.523c-2.712-0.004-5.723-0.616-7.511-2.827c-0.918-1.121-1.416-2.533-1.628-3.954    c-0.138-0.913-0.167-1.85-0.131-2.773c0.008-0.702,1.466-14.632,1.582-15.605c0.071-0.41,0.21-0.811,0.408-1.177    c0.167-0.308,0.378-0.595,0.622-0.846c0,0,10.646-10.969,10.646-10.969s0.047-0.048,0.047-0.048s0.048-0.047,0.048-0.047    c0.159-0.153,0.337-0.297,0.52-0.42c0.999-0.68,2.323-0.842,3.457-0.423c0.398,0.144,0.774,0.356,1.103,0.622    c0.119,0.097,0.239,0.205,0.346,0.316c0,0,10.646,10.969,10.646,10.969c0.017,0.028,0.073,0.068,0.09,0.096    c0.205,0.227,0.386,0.481,0.532,0.75c0.188,0.346,0.323,0.725,0.397,1.112c0.019,0.104,0.038,0.22,0.048,0.326    c0,0,1.451,14.035,1.451,14.035c0.171,1.697,0.177,3.445-0.242,5.108c-0.267,1.058-0.728,2.08-1.422,2.928    c-0.643,0.792-1.483,1.417-2.405,1.848c-0.855,0.401-1.78,0.651-2.711,0.798c-0.528,0.083-1.074,0.135-1.608,0.161    C179.161,203.58,172.378,203.544,168.626,203.523z"/>
	</g>
	<g id="l1">
		
			<path fill="none" stroke="#00B9D2" stroke-width="2.75" stroke-linecap="round" stroke-linejoin="round" stroke-miterlimit="10" d="    M217.133,81.235c-1.225,0.272-2.366,0.909-3.24,1.809c-0.874,0.895-1.48,2.049-1.72,3.277c-0.174,0.88-0.163,1.798,0.033,2.673    c0.026,0.073,2.924,13.124,2.945,13.188c0.044,0.188,0.099,0.382,0.16,0.565c0.196,0.591,0.48,1.156,0.836,1.667    c0.745,1.072,1.822,1.909,3.045,2.366c1.174,0.443,2.478,0.534,3.702,0.259c1.225-0.272,2.366-0.909,3.24-1.809    c0.893-0.914,1.506-2.099,1.735-3.357c0.118-0.639,0.139-1.299,0.062-1.944c-0.023-0.192-0.055-0.391-0.096-0.579    c0.001-0.047-2.94-13.13-2.944-13.188c-0.189-0.849-0.552-1.661-1.059-2.368c-0.743-1.04-1.801-1.852-2.998-2.3    C219.661,81.051,218.357,80.96,217.133,81.235z"/>
	</g>
	<g id="share">
		
			<path fill="none" stroke="#00B9D2" stroke-width="2.75" stroke-linecap="round" stroke-linejoin="round" stroke-miterlimit="10" d="    M234.445,81.584c-0.824-5.703,0.42-10.915,5.538-14.13"/>
	</g>
	<g id="detail_121">
		
			<path fill="none" stroke="#00B9D2" stroke-width="2.75" stroke-linecap="round" stroke-linejoin="round" stroke-miterlimit="10" d="    M220.283,62.784c11.691-2.736,24.075-4.398,36.01-5.715"/>
	</g>
	<g id="l2">
		
			<path fill="none" stroke="#00B9D2" stroke-width="2.75" stroke-linecap="round" stroke-linejoin="round" stroke-miterlimit="10" d="    M137.365,74.182l1.208-7.702c0.028-0.166,0.062-0.343,0.106-0.505c0.147-0.554,0.39-1.085,0.715-1.557    c0.259-0.377,0.574-0.722,0.926-1.014c0.221-0.226,1.85-1.211,2.156-1.419c6.743-4.216,13.925-7.994,21.508-10.448    c4.503-1.468,9.234-2.422,13.935-2.968c4.451-0.52,9.074-0.897,13.555-0.863c4.242,0.022,8.538,0.399,12.733,1.02    c1.36,0.206,3.254,0.499,4.602,0.788c0.333,0.091,0.663,0.22,0.97,0.378c0.98,0.502,1.784,1.338,2.247,2.337    c0.145,0.313,0.262,0.648,0.339,0.984c0.011,0.075,0.043,0.179,0.052,0.255c0,0,1.496,8.413,1.496,8.413"/>
	</g>
	<g id="mute">
		
			<path fill="none" stroke="#00B9D2" stroke-width="2.75" stroke-linecap="round" stroke-linejoin="round" stroke-miterlimit="10" d="    M366.971,265.427c0.008,1.19-0.727,2.317-1.82,2.789c-0.32,0.141-0.667,0.226-1.016,0.25c-0.067,0.004-0.144,0.007-0.21,0.007    c0,0-21.056,0-21.056,0c-0.12,0-0.248-0.008-0.367-0.022c-0.382-0.046-0.757-0.167-1.095-0.352    c-0.996-0.534-1.631-1.648-1.582-2.778c0.029-1.075,0.673-2.1,1.629-2.592c0.341-0.179,0.718-0.293,1.101-0.333    c0.102-0.01,0.212-0.016,0.315-0.016c0,0,21.056,0,21.056,0c0.083,0,0.179,0.004,0.263,0.011c0.331,0.029,0.66,0.113,0.964,0.246    C366.244,263.109,366.98,264.237,366.971,265.427z"/>
	</g>
	<g id="r3_inner">
		
			<path fill="none" stroke="#00B9D2" stroke-width="2.75" stroke-linecap="round" stroke-linejoin="round" stroke-miterlimit="10" d="    M423.794,234.406c-0.024-7.071,3.635-13.832,9.568-17.68c10.849-7.064,25.405-2.833,30.778,8.945c2.514,5.47,2.514,11.999,0,17.47    c-5.373,11.778-19.929,16.008-30.778,8.945C427.429,248.238,423.77,241.477,423.794,234.406z"/>
	</g>
	<g id="r3">
		
			<path fill="none" stroke="#00B9D2" stroke-width="2.75" stroke-linecap="round" stroke-linejoin="round" stroke-miterlimit="10" d="    M411.324,234.406c-0.028-11.268,5.769-21.98,15.218-28.119c17.267-11.233,40.396-4.511,48.952,14.227    c4.001,8.732,4.001,19.054,0,27.786c-8.557,18.738-31.686,25.46-48.952,14.227C417.092,256.386,411.295,245.674,411.324,234.406z"/>
	</g>
	<g id="r1">
		
			<path fill="none" stroke="#00B9D2" stroke-width="2.75" stroke-linecap="round" stroke-linejoin="round" stroke-miterlimit="10" d="    M489.661,81.235c1.225,0.272,2.366,0.909,3.24,1.809c0.874,0.895,1.48,2.049,1.72,3.277c0.174,0.88,0.163,1.798-0.034,2.673    c-0.026,0.073-2.924,13.124-2.945,13.188c-0.044,0.188-0.099,0.382-0.16,0.565c-0.196,0.591-0.48,1.156-0.836,1.667    c-0.745,1.072-1.822,1.909-3.045,2.366c-1.174,0.443-2.478,0.534-3.702,0.259c-1.225-0.272-2.366-0.909-3.24-1.809    c-0.893-0.914-1.506-2.099-1.735-3.357c-0.118-0.639-0.139-1.299-0.062-1.944c0.023-0.192,0.055-0.391,0.096-0.579    c-0.001-0.047,2.94-13.13,2.944-13.188c0.189-0.849,0.552-1.661,1.059-2.368c0.743-1.04,1.801-1.852,2.998-2.3    C487.133,81.051,488.437,80.96,489.661,81.235z"/>
	</g>
	<g id="options">
		
			<path fill="none" stroke="#00B9D2" stroke-width="2.75" stroke-linecap="round" stroke-linejoin="round" stroke-miterlimit="10" d="    M472.349,81.584c0.824-5.703-0.42-10.915-5.538-14.13"/>
	</g>
	<g id="detail_114">
		
			<path fill="none" stroke="#00B9D2" stroke-width="2.75" stroke-linecap="round" stroke-linejoin="round" stroke-miterlimit="10" d="    M486.511,62.784c-11.691-2.736-24.075-4.398-36.01-5.715"/>
	</g>
	<g id="r2">
		
			<path fill="none" stroke="#00B9D2" stroke-width="2.75" stroke-linecap="round" stroke-linejoin="round" stroke-miterlimit="10" d="    M569.429,74.182c0,0-1.208-7.702-1.208-7.702c-0.028-0.166-0.062-0.343-0.106-0.505c-0.147-0.554-0.39-1.085-0.715-1.557    c-0.26-0.377-0.574-0.722-0.926-1.014c-0.221-0.226-1.85-1.211-2.156-1.419c-6.743-4.216-13.925-7.994-21.508-10.448    c-4.503-1.468-9.234-2.422-13.935-2.968c-4.451-0.52-9.074-0.897-13.555-0.863c-4.242,0.022-8.538,0.399-12.733,1.02    c-1.36,0.206-3.254,0.499-4.602,0.788c-0.333,0.091-0.663,0.22-0.97,0.378c-0.98,0.502-1.784,1.338-2.247,2.337    c-0.145,0.313-0.262,0.648-0.339,0.984c-0.011,0.075-0.043,0.179-0.052,0.255c0,0-1.496,8.413-1.496,8.413"/>
	</g>
	<g id="square">
		
			<path fill="none" stroke="#00B9D2" stroke-width="2.75" stroke-linecap="round" stroke-linejoin="round" stroke-miterlimit="10" d="    M507.834,156.666c0.023-6.332-3.259-12.397-8.573-15.841c-9.717-6.329-22.766-2.537-27.577,8.014    c-2.252,4.898-2.252,10.755,0,15.653c4.811,10.551,17.861,14.344,27.577,8.014C504.575,169.063,507.857,162.998,507.834,156.666z"/>
	</g>
	<g id="circle">
		
			<path fill="none" stroke="#00B9D2" stroke-width="2.75" stroke-linecap="round" stroke-linejoin="round" stroke-miterlimit="10" d="    M591.789,156.666c0.023-6.332-3.259-12.397-8.573-15.841c-9.717-6.329-22.766-2.537-27.577,8.014    c-2.252,4.898-2.252,10.755,0,15.653c4.811,10.551,17.861,14.344,27.577,8.014C588.53,169.063,591.812,162.998,591.789,156.666z"/>
	</g>
	<g id="cross">
		
			<path fill="none" stroke="#00B9D2" stroke-width="2.75" stroke-linecap="round" stroke-linejoin="round" stroke-miterlimit="10" d="    M530.89,179.721c-6.332-0.023-12.397,3.259-15.841,8.573c-6.329,9.717-2.537,22.766,8.015,27.577    c4.898,2.252,10.755,2.252,15.653,0c10.551-4.811,14.344-17.861,8.014-27.577C543.286,182.981,537.222,179.699,530.89,179.721z"/>
	</g>
	<g id="triangle">
		
			<path fill="none" stroke="#00B9D2" stroke-width="2.75" stroke-linecap="round" stroke-linejoin="round" stroke-miterlimit="10" d="    M530.89,95.767c-6.332-0.023-12.397,3.259-15.841,8.573c-6.329,9.717-2.537,22.766,8.015,27.577    c4.898,2.252,10.755,2.252,15.653,0c10.551-4.811,14.344-17.861,8.014-27.577C543.286,99.026,537.222,95.744,530.89,95.767z"/>
	</g>
	<g id="lightbar">
		
			<path fill="none" stroke="#00B9D2" stroke-width="2.75" stroke-linecap="round" stroke-linejoin="round" stroke-miterlimit="10" d="    M245.347,134.909c1.491,8.684,3.314,17.487,6.489,25.727c1.748,4.468,3.959,8.845,7.061,12.534    c1.835,2.184,4.005,4.102,6.44,5.593c4.654,2.875,10.118,4.103,15.502,4.689c6.378,0.692,13.504,0.609,19.942,0.633    c8.151-0.082,114.468,0.206,119.108-0.187c3.304-0.152,6.731-0.421,9.989-1c4.047-0.715,8.066-1.965,11.579-4.135    c2.434-1.491,4.605-3.409,6.44-5.593c3.101-3.689,5.313-8.066,7.061-12.534c3.175-8.24,5-17.044,6.489-25.727"/>
	</g>
	<g id="touchpad">
		
			<path fill="none" stroke="#00B9D2" stroke-width="2.75" stroke-linecap="round" stroke-linejoin="round" stroke-miterlimit="10" d="    M456.574,126.241c2.681-14.098,7.871-41.573,10.178-55.731c0.07-0.657,0.136-1.339,0.119-2.001    c-0.01-0.774-0.091-1.553-0.27-2.306c-0.292-1.254-0.877-2.441-1.71-3.424c-1.091-1.297-2.548-2.238-4.071-2.952    c-2.349-1.091-4.909-1.728-7.439-2.242c-3.667-0.735-7.876-1.225-11.605-1.671c-28.717-3.432-59.442-3.773-88.378-3.866    c-28.945,0.095-59.648,0.433-88.378,3.866c-3.713,0.448-7.936,0.936-11.605,1.671c-2.529,0.514-5.091,1.151-7.439,2.242    c-1.523,0.714-2.981,1.655-4.071,2.952c-0.632,0.749-1.128,1.615-1.452,2.54c-0.32,0.911-0.48,1.876-0.519,2.839    c-0.036,0.692,0.009,1.402,0.079,2.09c2.326,14.273,7.463,41.795,10.209,55.994c1.288,8.903,2.894,17.942,5.96,26.423    c2.49,6.821,6.273,13.623,12.588,17.56c3.746,2.38,8.106,3.615,12.464,4.271c2.61,0.397,5.389,0.609,8.029,0.734    c8.826,0.373,54.393,0.116,64.137,0.188c9.98-0.082,54.985,0.202,64.136-0.188c2.821-0.135,5.774-0.364,8.563-0.818    c4.096-0.66,8.181-1.858,11.726-4.06c2.419-1.489,4.554-3.429,6.332-5.64c2.871-3.567,4.884-7.77,6.46-12.047    C453.68,144.184,455.288,135.143,456.574,126.241z"/>
	</g>
	<g id="detail_106">
		
			<path fill="none" stroke="#00B9D2" stroke-width="2.75" stroke-linecap="round" stroke-linejoin="round" stroke-miterlimit="10" d="    M107.237,420.182c1.907,0.457,3.932,0.566,5.84,0.064c1.741-0.446,3.323-1.394,4.647-2.598c2.03-1.847,3.542-4.2,4.838-6.599    c2.267-4.252,3.995-9.031,5.603-13.574c9.027-27.017,20.224-62.234,31.575-88.006c7.454-17.257,16.355-35.336,25.378-51.835    c5.556-10.105,12.117-21.274,18.461-30.894c5.594-8.484,12.1-17.376,18.403-25.341c0,0,17.119-21.08,17.119-21.08    c2.107-2.661,4.139-5.476,5.613-8.541c1.016-2.106,1.756-4.36,2.21-6.653c0.638-3.22,0.756-6.554,0.682-9.829    c-0.137-5.042-0.738-10.258-1.459-15.249c-1.613-10.676-4.155-23.486-6.369-34.082c-1.688-7.309-4.871-23.906-7.145-31.07    c-0.691-2.09-1.556-4.177-2.826-5.988c-1.519-2.19-3.678-3.915-6.118-4.977c-2.961-1.301-6.22-1.805-9.427-2.027    c-4.654-0.303-9.406,0.001-14.041,0.456c-14.311,1.47-29.588,4.788-43.694,7.656c0,0-24.27,5.308-24.27,5.308    s-0.07,0.016-0.07,0.016s-0.07,0.017-0.07,0.017s-0.069,0.017-0.069,0.017c-0.273,0.072-0.555,0.156-0.819,0.259    c-0.956,0.36-1.832,0.92-2.6,1.59c-1.68,1.479-2.877,3.431-3.83,5.437c-13.559,29.077-26.004,59.432-35.481,90.097    c-5.558,18.049-10.3,36.929-13.546,55.535c-3.271,18.253-5.113,37.983-6.47,56.509c-1.984,28.861-2.571,58.466,3.876,86.838    c1.343,5.874,3,11.808,5.103,17.457c1.723,4.574,3.742,9.15,6.291,13.33c2.052,3.375,4.506,6.548,7.442,9.201    c2.643,2.4,5.677,4.372,8.882,5.935c3.246,1.599,6.756,2.832,10.217,3.88c4.01,1.193,8.176,2.17,12.289,2.928    c5.699,1.011,11.526,1.814,17.325,1.672c1.742-0.069,3.504-0.24,5.153-0.833c1.17-0.416,2.253-1.064,3.18-1.889    c1.611-1.433,2.804-3.283,3.875-5.137c1.355-2.35,2.705-5.261,3.869-7.733c6.338-13.86,13.41-30.841,19.026-45.041    c2.034-5.242,4.733-12.305,6.602-17.581c1.663-4.419,6.405-18.591,8.068-22.557c1.288-3.2,2.667-6.485,4.287-9.522    c2.433-4.631,5.475-9,9.252-12.637c2.01-1.941,4.209-3.733,6.609-5.171c2.45-1.474,5.138-2.59,7.878-3.397    c4.004-1.178,8.198-1.777,12.352-2.097c4.704-0.354,9.705-0.348,14.424-0.167c14.727,0.833,33.303,1.899,48.062,2.306    c17.312,0.545,42.654,0.663,60.031,0.661c17.391-0.018,42.699-0.11,60.031-0.661c14.749-0.417,33.341-1.466,48.062-2.306    c4.713-0.184,9.72-0.186,14.425,0.167c4.153,0.319,8.35,0.92,12.352,2.097c2.89,0.851,5.723,2.049,8.283,3.644    c2.241,1.391,4.309,3.093,6.205,4.923c3.775,3.637,6.82,8.007,9.252,12.637c1.617,3.035,3.015,6.331,4.287,9.522    c4.554,12.074,9.846,28.198,14.671,40.137c5.602,14.194,12.683,31.173,19.025,45.041c0,0,1.058,2.253,1.058,2.253    s0.988,2.033,0.988,2.033s0.472,0.937,0.472,0.937s0.46,0.886,0.46,0.886s0.45,0.836,0.45,0.836s0.222,0.4,0.222,0.4    s0.22,0.388,0.22,0.388c1.044,1.81,2.211,3.618,3.764,5.037c0.88,0.803,1.91,1.457,3.022,1.888    c1.373,0.539,2.85,0.766,4.315,0.875c2.564,0.186,5.172,0.039,7.728-0.154c3.939-0.331,7.95-0.925,11.832-1.673    c7.144-1.424,14.326-3.281,20.942-6.384c3.365-1.601,6.558-3.634,9.319-6.146c2.934-2.654,5.392-5.826,7.442-9.201    c2.547-4.18,4.574-8.752,6.291-13.33c2.098-5.652,3.768-11.58,5.103-17.457c6.445-28.371,5.865-57.976,3.876-86.838    c-1.355-18.549-3.201-38.241-6.47-56.509c-3.253-18.604-7.977-37.489-13.546-55.535c-9.53-30.798-22.016-61.296-35.67-90.487    c-0.922-1.863-2.069-3.665-3.642-5.046c-0.573-0.491-1.194-0.937-1.873-1.271c-0.26-0.126-0.523-0.247-0.795-0.344    c-0.226-0.079-0.451-0.157-0.682-0.216c-0.086-0.024-0.191-0.048-0.278-0.068c0,0-24.27-5.308-24.27-5.308    c-14.593-3.004-30.254-6.334-45.051-7.787c-4.348-0.378-8.795-0.622-13.151-0.291c-3.051,0.242-6.143,0.754-8.96,1.994    c-2.442,1.064-4.598,2.785-6.118,4.977c-1.271,1.813-2.133,3.895-2.826,5.988c-2.289,7.21-5.38,23.422-7.146,31.07    c-2.187,10.645-4.799,23.394-6.369,34.082c-0.729,5-1.322,10.205-1.46,15.249c-0.075,3.152,0.037,6.354,0.61,9.458    c0.447,2.424,1.211,4.804,2.281,7.025c1.473,3.065,3.513,5.877,5.613,8.541l17.119,21.08c6.305,7.968,12.807,16.852,18.403,25.341    c6.344,9.62,12.905,20.787,18.461,30.894c9.024,16.501,17.924,34.576,25.379,51.835c11.318,25.68,22.602,61.151,31.574,88.006    c1.611,4.548,3.335,9.318,5.603,13.574c1.296,2.4,2.808,4.752,4.838,6.599c1.323,1.203,2.906,2.152,4.647,2.598    c1.909,0.502,3.934,0.393,5.84-0.064"/>
	</g>
	<g id="detail_105" display="none">
		
			<path fill="none" stroke="#00B9D2" stroke-width="2.75" stroke-linecap="round" stroke-linejoin="round" stroke-miterlimit="10" d="    M126.37,562.782c26.944-1.655,56.717-1.036,83.782-0.219"/>
	</g>
	<g id="detail_104" display="none">
		
			<path fill="none" stroke="#00B9D2" stroke-width="2.75" stroke-linecap="round" stroke-linejoin="round" stroke-miterlimit="10" d="    M244.257,669.795c2.054-0.149,4.18-0.587,5.881-1.807"/>
	</g>
	<g id="detail_103" display="none">
		
			<path fill="none" stroke="#00B9D2" stroke-width="2.75" stroke-linecap="round" stroke-linejoin="round" stroke-miterlimit="10" d="    M371.235,593.836c0.002,1.177-0.343,2.354-0.979,3.345c-0.615,0.962-1.503,1.749-2.532,2.243c-0.642,0.309-1.341,0.508-2.05,0.581    c-0.208,0.021-0.432,0.033-0.641,0.033c0,0-23.271,0-23.271,0c-0.048-0.003-0.165,0-0.214-0.004    c-0.891-0.03-1.777-0.257-2.573-0.658c-1.02-0.512-1.895-1.314-2.493-2.286c-0.6-0.971-0.924-2.113-0.922-3.254    c-0.001-1.142,0.322-2.283,0.922-3.254c0.598-0.973,1.472-1.775,2.493-2.286c0.796-0.401,1.682-0.628,2.573-0.658    c0.277-0.056,23.217,0.033,23.485-0.004c0.208,0,0.434,0.012,0.641,0.033c0.708,0.073,1.408,0.272,2.05,0.581    c1.061,0.509,1.972,1.33,2.589,2.334C370.912,591.553,371.236,592.694,371.235,593.836z"/>
	</g>
	<g id="detail_102" display="none">
		
			<path fill="none" stroke="#00B9D2" stroke-width="2.75" stroke-linecap="round" stroke-linejoin="round" stroke-miterlimit="10" d="    M259.382,618.042c-6.889-0.161-13.837-1.312-20.267-3.835c-3.659-1.443-7.169-3.35-10.236-5.824    c-4.317-3.455-7.773-8.251-8.768-13.766"/>
	</g>
	<g id="detail_101" display="none">
		
			<path fill="none" stroke="#00B9D2" stroke-width="2.75" stroke-linecap="round" stroke-linejoin="round" stroke-miterlimit="10" d="    M240.676,720.912c-6.736-0.003-11.344-2.607-12.206-9.682c-0.219-1.759,0.916-3.441,2.631-3.893    c0.24-0.064,0.491-0.104,0.739-0.117c0.061-0.003,0.128-0.005,0.187-0.005c0,0,29.855,0,29.855,0s29.855,0,29.855,0    c0.049,0,0.136,0.002,0.187,0.005c0.248,0.013,0.5,0.053,0.739,0.117c0.846,0.224,1.602,0.772,2.077,1.507    c0.456,0.698,0.656,1.558,0.554,2.385c-0.204,1.595-0.608,3.192-1.383,4.61c-0.67,1.237-1.641,2.313-2.814,3.091    c-0.919,0.614-1.951,1.057-3.011,1.36c-1.148,0.328-2.345,0.502-3.536,0.577c-0.33,0.02-0.701,0.035-1.032,0.041    c0,0-0.43,0.004-0.43,0.004H240.676z"/>
	</g>
	<g id="detail_100" display="none">
		
			<polyline fill="none" stroke="#00B9D2" stroke-width="2.75" stroke-linecap="round" stroke-linejoin="round" stroke-miterlimit="10" points="    246.011,692.591 246.011,707.216 277.752,707.216 277.752,692.79   "/>
	</g>
	<g id="detail_99" display="none">
		
			<path fill="none" stroke="#00B9D2" stroke-width="2.75" stroke-linecap="round" stroke-linejoin="round" stroke-miterlimit="10" d="    M217.263,676.759c2.017,3.306,4.154,6.645,6.795,9.491c1.085,1.152,2.288,2.227,3.658,3.029c1.096,0.652,2.319,1.086,3.539,1.441    c3.582,1.068,7.36,1.493,11.082,1.707c5.797,0.335,13.678,0.321,19.544,0.358c6.671-0.056,14.93,0.01,21.534-0.495    c2.915-0.234,5.868-0.652,8.684-1.453c1.201-0.341,2.422-0.728,3.524-1.322c2.416-1.294,4.302-3.375,5.985-5.499    c2.668-3.43,4.948-7.266,7.089-11.042"/>
	</g>
	<g id="detail_98" display="none">
		
			<rect x="335.64" y="672.975" fill="none" stroke="#00B9D2" stroke-width="2.75" stroke-linecap="round" stroke-linejoin="round" stroke-miterlimit="10" width="35.515" height="3.591"/>
	</g>
	<g id="detail_97" display="none">
		
			<path fill="none" stroke="#00B9D2" stroke-width="2.75" stroke-linecap="round" stroke-linejoin="round" stroke-miterlimit="10" d="    M155.811,663.069c-0.001-0.677,0.223-1.351,0.63-1.892c0.416-0.557,1.022-0.969,1.693-1.151c0.247-0.068,0.505-0.105,0.761-0.111    c0.207,0,25.154-0.004,25.354,0.001c0.244,0.008,0.49,0.045,0.726,0.11c0.671,0.182,1.277,0.594,1.693,1.151    c0.407,0.541,0.632,1.215,0.63,1.892c-0.011,1.108-0.575,2.19-1.478,2.832c-0.024,0.017-0.076,0.053-0.101,0.07    c-0.203,0.135-0.424,0.252-0.65,0.343c-0.091,0.036-0.195,0.073-0.289,0.102c0,0-13.226,3.994-13.226,3.994    s-13.237-4.039-13.237-4.039c-0.073-0.022-0.159-0.052-0.231-0.079c-0.303-0.116-0.592-0.275-0.852-0.469    c-0.886-0.653-1.43-1.737-1.424-2.838"/>
	</g>
	<g id="detail_96" display="none">
		
			<path fill="none" stroke="#00B9D2" stroke-width="2.75" stroke-linecap="round" stroke-linejoin="round" stroke-miterlimit="10" d="    M155.811,679.223c-0.001,0.677,0.223,1.351,0.63,1.892c0.416,0.557,1.022,0.969,1.693,1.151c0.247,0.068,0.505,0.105,0.761,0.111    c0.207-0.001,25.154,0.004,25.354-0.001c0.244-0.008,0.49-0.045,0.726-0.11c0.671-0.182,1.277-0.594,1.693-1.151    c0.407-0.541,0.632-1.215,0.63-1.892c-0.011-1.108-0.575-2.19-1.478-2.832c-0.024-0.017-0.076-0.053-0.101-0.07    c-0.203-0.135-0.424-0.252-0.65-0.343c-0.091-0.036-0.195-0.073-0.289-0.102c0,0-13.226-3.994-13.226-3.994l-13.237,4.039    c-0.073,0.022-0.159,0.052-0.231,0.079c-0.303,0.116-0.592,0.275-0.852,0.469c-0.886,0.653-1.43,1.737-1.424,2.838"/>
	</g>
	<g id="detail_95" display="none">
		
			<path fill="none" stroke="#00B9D2" stroke-width="2.75" stroke-linecap="round" stroke-linejoin="round" stroke-miterlimit="10" d="    M131.712,675.713c-0.823,0.003-1.64-0.339-2.215-0.929c-0.503-0.509-0.819-1.197-0.879-1.909    c-0.023-0.115-0.008-2.669-0.011-2.854c0.004-0.213,0.03-0.43,0.077-0.638c0.184-0.821,0.719-1.555,1.444-1.981    c0.368-0.219,0.784-0.36,1.209-0.411c0.122-0.015,0.252-0.023,0.374-0.023c0,0,18.019,0,18.019,0l14.023,3.104    c0.097,0.023,0.34,0.077,0.433,0.101c0.201,0.05,0.426,0.11,0.624,0.17c0.398,0.13,0.843,0.261,1.161,0.54    c0.018,0.018,0.027,0.027,0.027,0.027c0.016,0.018,0.024,0.027,0.024,0.027c0.014,0.018,0.021,0.027,0.021,0.027    c0.013,0.018,0.018,0.027,0.018,0.027c0.011,0.018,0.016,0.027,0.016,0.027c0.009,0.018,0.013,0.027,0.013,0.027    c0.007,0.018,0.01,0.027,0.01,0.027c0.005,0.018,0.007,0.027,0.007,0.027c0.003,0.018,0.005,0.027,0.005,0.027    c0.002,0.018,0.002,0.027,0.002,0.027c0,0.018-0.001,0.027-0.001,0.027c-0.002,0.018-0.004,0.027-0.004,0.027    c-0.004,0.018-0.006,0.027-0.006,0.027c-0.006,0.018-0.009,0.027-0.009,0.027c-0.008,0.018-0.012,0.027-0.012,0.027    c-0.009,0.018-0.015,0.027-0.015,0.027c-0.011,0.018-0.017,0.027-0.017,0.027c-0.013,0.018-0.02,0.027-0.02,0.027    c-0.015,0.018-0.023,0.027-0.023,0.027c-0.017,0.018-0.025,0.027-0.025,0.027c-0.31,0.29-0.751,0.436-1.139,0.578    c-0.022,0.113-14.575,3.562-15.113,3.711C149.731,675.713,131.712,675.713,131.712,675.713z"/>
	</g>
	<g id="detail_94" display="none">
		
			<path fill="none" stroke="#00B9D2" stroke-width="2.75" stroke-linecap="round" stroke-linejoin="round" stroke-miterlimit="10" d="    M211.399,675.713c0.823,0.003,1.64-0.339,2.215-0.929c0.503-0.509,0.819-1.197,0.879-1.909c0.023-0.115,0.008-2.669,0.011-2.854    c-0.004-0.213-0.03-0.43-0.077-0.638c-0.184-0.821-0.719-1.555-1.444-1.981c-0.368-0.219-0.784-0.36-1.209-0.411    c-0.122-0.015-0.252-0.023-0.374-0.023c0,0-18.019,0-18.019,0s-14.023,3.104-14.023,3.104c-0.097,0.023-0.34,0.077-0.433,0.101    c-0.201,0.05-0.426,0.11-0.624,0.17c-0.398,0.13-0.843,0.261-1.161,0.54c-0.018,0.018-0.027,0.027-0.027,0.027    c-0.016,0.018-0.024,0.027-0.024,0.027c-0.014,0.018-0.021,0.027-0.021,0.027c-0.013,0.018-0.018,0.027-0.018,0.027    c-0.011,0.018-0.016,0.027-0.016,0.027c-0.009,0.018-0.013,0.027-0.013,0.027c-0.007,0.018-0.01,0.027-0.01,0.027    c-0.005,0.018-0.007,0.027-0.007,0.027c-0.003,0.018-0.005,0.027-0.005,0.027c-0.002,0.018-0.002,0.027-0.002,0.027    c0,0.018,0.001,0.027,0.001,0.027c0.002,0.018,0.004,0.027,0.004,0.027c0.004,0.018,0.006,0.027,0.006,0.027    c0.006,0.018,0.009,0.027,0.009,0.027c0.008,0.018,0.012,0.027,0.012,0.027c0.009,0.018,0.015,0.027,0.015,0.027    c0.011,0.018,0.017,0.027,0.017,0.027c0.013,0.018,0.02,0.027,0.02,0.027c0.015,0.018,0.023,0.027,0.023,0.027    c0.017,0.018,0.025,0.027,0.025,0.027c0.31,0.29,0.751,0.436,1.139,0.578c0.023,0.113,14.575,3.562,15.113,3.711    C193.379,675.713,211.399,675.713,211.399,675.713z"/>
	</g>
	<g id="detail_93" display="none">
		
			<path fill="none" stroke="#00B9D2" stroke-width="2.75" stroke-linecap="round" stroke-linejoin="round" stroke-miterlimit="10" d="    M151.214,499.655c-12.583-4.756-26.81-6.573-40.05-3.785c-4.17,0.899-8.273,2.29-12.045,4.295    c-3.232,1.713-6.233,3.898-8.864,6.438c-6.012,5.781-10.067,13.285-13.118,20.972c-2.943,7.454-5.1,15.294-6.676,23.146    c-2.328,11.73-3.403,23.83-2.301,35.763c1.195,13.081,4.91,25.886,10.025,37.952c5.184,11.954,11.841,23.692,21.7,32.411    c6.347,5.65,13.929,9.844,21.923,12.669c2.085,0.752,4.66,1.273,6.798,1.824"/>
	</g>
	<g id="detail_92" display="none">
		
			<path fill="none" stroke="#00B9D2" stroke-width="2.75" stroke-linecap="round" stroke-linejoin="round" stroke-miterlimit="10" d="    M148.375,675.064c2.73,0.3,7.128,0.657,9.9,0.872"/>
	</g>
	<g id="detail_91" display="none">
		
			<path fill="none" stroke="#00B9D2" stroke-width="2.75" stroke-linecap="round" stroke-linejoin="round" stroke-miterlimit="10" d="    M186.669,677.256c10.564,0.198,21.637,0.167,32.169-0.605c5.757-0.439,11.71-1.012,17.379-2.119    c1.848-0.386,3.749-0.795,5.498-1.518c0.704-0.302,1.415-0.655,1.959-1.205c0.305-0.313,0.536-0.708,0.6-1.125    c0.025-0.13,0.028-0.25,0.03-0.377c0-0.234-0.035-0.471-0.084-0.699c-0.244-1.106-0.856-2.094-1.479-3.025    c-1.167-1.708-2.76-3.62-4.079-5.233c-3.995-4.783-8.627-10.18-12.914-14.664c-2.895-2.979-5.923-5.997-9.584-8.022    c-1.733-0.941-3.595-1.674-5.497-2.19c-4.156-1.085-8.644-1.268-12.924-1.455c-10.32-0.387-30.242-0.058-40.627-0.468    c-2.907-0.146-5.959-0.391-8.839-0.817c-4.688-0.714-9.465-1.858-13.501-4.444c-9.85-6.391-11.249-20.178-11.8-30.929    c-0.997-21.44,4.231-42.687,11.375-62.757c2.914-8.111,6.259-16.343,10.099-24.061c2.367-4.693,4.991-9.448,8.03-13.741    c1.657-2.327,3.475-4.626,5.531-6.616c1.871-1.815,4.013-3.408,6.433-4.408c3.12-1.312,6.591-1.52,9.929-1.191    c3.478,0.34,6.921,1.207,10.177,2.47c3.261,1.277,6.387,2.987,9.087,5.229c6.116,5.068,9.555,12.557,11.798,20.019    c2.612,8.715,3.614,17.914,4.141,26.97c0.554,8.918,0.556,22.811,0.598,31.891c-0.006,2.987-0.013,8.418-0.124,11.335    c-0.261,7.395-1.044,15.197-2.016,22.534c-0.83,5.707-2.029,11.495-4.585,16.703c-3.846,7.817-10.074,12.046-18.875,12.029"/>
	</g>
	<g id="detail_90" display="none">
		
			<path fill="none" stroke="#00B9D2" stroke-width="2.75" stroke-linecap="round" stroke-linejoin="round" stroke-miterlimit="10" d="    M580.424,562.782c-26.944-1.655-56.717-1.036-83.782-0.219"/>
	</g>
	<g id="detail_89" display="none">
		
			<path fill="none" stroke="#00B9D2" stroke-width="2.75" stroke-linecap="round" stroke-linejoin="round" stroke-miterlimit="10" d="    M462.537,669.795c-2.054-0.149-4.18-0.587-5.881-1.807"/>
	</g>
	<g id="detail_88" display="none">
		
			<path fill="none" stroke="#00B9D2" stroke-width="2.75" stroke-linecap="round" stroke-linejoin="round" stroke-miterlimit="10" d="    M447.412,618.042c6.889-0.161,13.837-1.312,20.267-3.835c3.659-1.443,7.169-3.35,10.236-5.824    c4.317-3.455,7.773-8.251,8.768-13.766"/>
	</g>
	<g id="detail_87" display="none">
		
			<path fill="none" stroke="#00B9D2" stroke-width="2.75" stroke-linecap="round" stroke-linejoin="round" stroke-miterlimit="10" d="    M466.118,720.912c6.736-0.003,11.344-2.607,12.206-9.682c0.22-1.759-0.916-3.441-2.631-3.893c-0.24-0.064-0.491-0.104-0.739-0.117    c-0.061-0.003-0.128-0.005-0.187-0.005c0,0-29.855,0-29.855,0s-29.855,0-29.855,0c-0.049,0-0.136,0.002-0.187,0.005    c-0.248,0.013-0.5,0.053-0.739,0.117c-0.846,0.224-1.602,0.772-2.077,1.507c-0.456,0.698-0.656,1.558-0.554,2.385    c0.204,1.595,0.607,3.192,1.383,4.61c0.67,1.237,1.641,2.313,2.814,3.091c0.918,0.614,1.951,1.057,3.011,1.36    c1.148,0.328,2.345,0.502,3.536,0.577c0.33,0.02,0.701,0.035,1.032,0.041c0,0,0.43,0.004,0.43,0.004H466.118z"/>
	</g>
	<g id="detail_86" display="none">
		
			<polyline fill="none" stroke="#00B9D2" stroke-width="2.75" stroke-linecap="round" stroke-linejoin="round" stroke-miterlimit="10" points="    460.783,692.591 460.783,707.216 429.042,707.216 429.042,692.79   "/>
	</g>
	<g id="detail_85" display="none">
		
			<path fill="none" stroke="#00B9D2" stroke-width="2.75" stroke-linecap="round" stroke-linejoin="round" stroke-miterlimit="10" d="    M498.851,524.406c-8.659,4.031-17.642,8.379-26.756,11.196c-4.696,1.445-9.613,2.41-14.504,2.864    c-8.003,1.135-93.942,0.358-104.194,0.578c0,0-89.008-0.009-89.008-0.009l-5.521-0.063c-3.06-0.071-6.615-0.205-9.665-0.506    c-4.889-0.454-9.811-1.419-14.504-2.864c-9.105-2.814-18.126-7.168-26.756-11.196"/>
	</g>
	<g id="detail_84" display="none">
		
			<path fill="none" stroke="#00B9D2" stroke-width="2.75" stroke-linecap="round" stroke-linejoin="round" stroke-miterlimit="10" d="    M353.397,672.975l-84.425-0.056c-2.579-0.056-5.408-0.112-7.976-0.391c-1.585-0.175-3.204-0.444-4.725-0.938    c-1.872-0.592-3.612-1.572-5.149-2.789c-1.447-1.123-2.787-2.47-4.082-3.761c-1.661-1.699-3.633-3.754-5.186-5.557    c-1.885-2.196-3.779-4.515-5.294-6.987c-0.937-1.534-1.75-3.177-2.165-4.934c-0.29-1.229-0.368-2.513-0.195-3.765    c0.219-1.624,0.826-3.178,1.591-4.619c1.412-2.633,3.295-5.019,5.341-7.187c2.646-2.738,5.652-5.322,9.268-6.657    c1.412-0.527,2.916-0.868,4.402-1.112c2.25-0.371,4.713-0.533,6.995-0.665c15.007-0.685,75.492-0.309,91.598-0.435    c16.405,0.135,76.173-0.263,91.598,0.434c2.27,0.136,4.747,0.293,6.995,0.665c1.483,0.244,2.991,0.585,4.402,1.112    c3.616,1.335,6.621,3.919,9.268,6.657c2.096,2.222,4.024,4.67,5.444,7.384c0.743,1.438,1.323,2.99,1.511,4.605    c0.143,1.194,0.059,2.413-0.218,3.582c-0.454,1.92-1.38,3.7-2.429,5.358c-1.671,2.625-3.726,5.091-5.785,7.421    c-1.544,1.744-3.457,3.724-5.104,5.374c-1.184,1.146-2.388,2.332-3.707,3.316c-1.561,1.194-3.332,2.124-5.221,2.674    c-1.574,0.473-3.244,0.718-4.878,0.877c-2.386,0.23-5.047,0.289-7.451,0.337L353.397,672.975z"/>
	</g>
	<g id="detail_83" display="none">
		
			<path fill="none" stroke="#00B9D2" stroke-width="2.75" stroke-linecap="round" stroke-linejoin="round" stroke-miterlimit="10" d="    M229.609,650.852c-0.635-1.695-1.072-3.487-1.13-5.302c-0.08-2.465,0.52-4.915,1.461-7.181c1.21-2.905,2.962-5.58,4.913-8.039    c3.171-3.969,7.091-7.481,11.762-9.569c2.615-1.168,5.445-1.849,8.273-2.258c1.676-0.25,3.561-0.403,5.259-0.511    c18.21-1.081,74.127-0.55,93.25-0.621c19.388,0.078,74.669-0.47,93.249,0.621c1.666,0.106,3.598,0.264,5.259,0.511    c2.827,0.409,5.658,1.09,8.273,2.258c4.671,2.088,8.591,5.6,11.762,9.569c1.848,2.33,3.518,4.856,4.719,7.583    c1.074,2.447,1.771,5.117,1.648,7.804c-0.079,1.757-0.506,3.492-1.123,5.134"/>
	</g>
	<g id="detail_82" display="none">
		
			<path fill="none" stroke="#00B9D2" stroke-width="2.75" stroke-linecap="round" stroke-linejoin="round" stroke-miterlimit="10" d="    M511.997,666.3l0,0.02l0.001,0.02l0.001,0.02c0,0,0.002,0.02,0.002,0.02s0.003,0.02,0.003,0.02l0.003,0.02    c0,0,0.004,0.02,0.004,0.02l0.004,0.02l0.005,0.02c0,0,0.006,0.021,0.006,0.021s0.006,0.021,0.006,0.021s0.007,0.021,0.007,0.021    l0.008,0.021l0.008,0.021l0.009,0.021c0,0,0.009,0.021,0.009,0.021l0.01,0.021l0.011,0.021l0.011,0.021    c0,0,0.012,0.021,0.012,0.021s0.013,0.021,0.013,0.021s0.013,0.021,0.013,0.021l0.014,0.021c0,0,0.015,0.021,0.015,0.021    l0.015,0.021l0.016,0.021l0.017,0.021l0.017,0.021c0,0,0.018,0.021,0.018,0.021c0.269,0.304,0.627,0.515,0.984,0.698    c0.753,0.376,1.578,0.629,2.389,0.847c2.135,0.555,4.391,0.861,6.584,1.087c3.401,0.338,6.954,0.443,10.375,0.392    c3.131-0.058,6.336-0.255,9.439-0.684c1.735-0.252,3.515-0.563,5.184-1.106c0.536-0.179,1.074-0.385,1.568-0.662    c0.272-0.156,0.539-0.335,0.747-0.572c0,0,0.018-0.021,0.018-0.021s0.017-0.021,0.017-0.021l0.017-0.021l0.016-0.021    c0,0,0.015-0.021,0.015-0.021s0.015-0.021,0.015-0.021l0.014-0.021c0,0,0.013-0.021,0.013-0.021l0.013-0.021    c0,0,0.012-0.021,0.012-0.021s0.011-0.021,0.011-0.021l0.011-0.021c0,0,0.01-0.021,0.01-0.021s0.009-0.021,0.009-0.021    l0.009-0.021l0.008-0.021l0.008-0.021l0.007-0.021l0.006-0.021c0,0,0.006-0.021,0.006-0.021l0.005-0.02l0.004-0.02    c0,0,0.004-0.02,0.004-0.02s0.003-0.02,0.003-0.02l0.003-0.02c0,0,0.002-0.02,0.002-0.02s0.001-0.02,0.001-0.02l0.001-0.02    c0.001-0.038,0.001-3.639,0-3.678c0,0-0.001-0.02-0.001-0.02l-0.001-0.02l-0.002-0.02c0,0-0.003-0.02-0.003-0.02    s-0.003-0.02-0.003-0.02l-0.004-0.02l-0.004-0.02c0,0-0.005-0.02-0.005-0.02l-0.006-0.021l-0.006-0.021    c0,0-0.007-0.021-0.007-0.021s-0.008-0.021-0.008-0.021s-0.008-0.021-0.008-0.021l-0.009-0.021l-0.009-0.021l-0.01-0.021    c0,0-0.011-0.021-0.011-0.021l-0.011-0.021l-0.012-0.021l-0.013-0.021l-0.013-0.021l-0.014-0.021l-0.015-0.021l-0.015-0.021    l-0.016-0.021c0,0-0.017-0.021-0.017-0.021l-0.017-0.021l-0.018-0.021c-0.269-0.304-0.627-0.515-0.984-0.698    c-0.753-0.376-1.578-0.629-2.389-0.847c-2.135-0.555-4.391-0.861-6.584-1.087c-3.401-0.338-6.954-0.444-10.375-0.392    c-3.131,0.058-6.336,0.255-9.439,0.684c-1.735,0.252-3.515,0.564-5.184,1.106c-0.536,0.179-1.074,0.385-1.568,0.662    c-0.272,0.156-0.539,0.335-0.747,0.572c0,0-0.018,0.021-0.018,0.021l-0.017,0.021l-0.017,0.021l-0.016,0.021l-0.015,0.021    l-0.015,0.021l-0.014,0.021c0,0-0.013,0.021-0.013,0.021l-0.013,0.021c0,0-0.012,0.021-0.012,0.021l-0.011,0.021l-0.011,0.021    l-0.01,0.021l-0.009,0.021l-0.009,0.021l-0.008,0.021l-0.008,0.021l-0.007,0.021l-0.006,0.021c0,0-0.006,0.021-0.006,0.021    s-0.005,0.02-0.005,0.02s-0.004,0.02-0.004,0.02l-0.004,0.02l-0.003,0.02c0,0-0.003,0.02-0.003,0.02s-0.002,0.02-0.002,0.02    l-0.001,0.02c0,0-0.001,0.02-0.001,0.02C511.997,662.663,511.998,666.278,511.997,666.3z"/>
	</g>
	<g id="detail_81" display="none">
		
			<path fill="none" stroke="#00B9D2" stroke-width="2.75" stroke-linecap="round" stroke-linejoin="round" stroke-miterlimit="10" d="    M511.997,679.76l0,0.02l0.001,0.02c0,0,0.001,0.02,0.001,0.02s0.002,0.02,0.002,0.02l0.003,0.02c0,0,0.003,0.02,0.003,0.02    l0.004,0.02c0,0,0.004,0.02,0.004,0.02l0.005,0.02c0,0,0.006,0.021,0.006,0.021s0.006,0.021,0.006,0.021s0.007,0.021,0.007,0.021    l0.008,0.021l0.008,0.021l0.009,0.021l0.009,0.021l0.01,0.021l0.011,0.021c0,0,0.011,0.021,0.011,0.021l0.012,0.021    c0,0,0.013,0.021,0.013,0.021s0.013,0.021,0.013,0.021s0.014,0.021,0.014,0.021s0.015,0.021,0.015,0.021s0.015,0.021,0.015,0.021    l0.016,0.021l0.017,0.021l0.017,0.021l0.018,0.021c0.269,0.304,0.627,0.515,0.984,0.698c0.753,0.376,1.578,0.629,2.389,0.847    c2.135,0.555,4.391,0.861,6.584,1.087c3.401,0.338,6.954,0.443,10.375,0.392c3.131-0.058,6.336-0.255,9.439-0.684    c1.735-0.252,3.515-0.564,5.184-1.106c0.536-0.179,1.074-0.385,1.568-0.662c0.272-0.156,0.539-0.335,0.747-0.572    c0,0,0.018-0.021,0.018-0.021s0.017-0.021,0.017-0.021l0.017-0.021l0.016-0.021c0,0,0.015-0.021,0.015-0.021    s0.015-0.021,0.015-0.021s0.014-0.021,0.014-0.021l0.013-0.021l0.013-0.021l0.012-0.021l0.011-0.021c0,0,0.011-0.021,0.011-0.021    l0.01-0.021c0,0,0.009-0.021,0.009-0.021l0.009-0.021l0.008-0.021l0.008-0.021l0.007-0.021c0,0,0.006-0.021,0.006-0.021    s0.006-0.021,0.006-0.021l0.005-0.02c0,0,0.004-0.02,0.004-0.02s0.004-0.02,0.004-0.02l0.003-0.02l0.003-0.02    c0,0,0.002-0.02,0.002-0.02s0.001-0.02,0.001-0.02l0.001-0.02c0.001-0.038,0.001-3.639,0-3.678c0,0-0.001-0.02-0.001-0.02    l-0.001-0.02l-0.002-0.02c0,0-0.003-0.02-0.003-0.02s-0.003-0.02-0.003-0.02s-0.004-0.02-0.004-0.02l-0.004-0.02    c0,0-0.005-0.02-0.005-0.02l-0.006-0.02c0,0-0.006-0.021-0.006-0.021s-0.007-0.021-0.007-0.021l-0.008-0.021    c0,0-0.008-0.021-0.008-0.021l-0.009-0.021l-0.009-0.021c0,0-0.01-0.021-0.01-0.021s-0.011-0.021-0.011-0.021l-0.011-0.021    l-0.012-0.021l-0.013-0.021l-0.013-0.021c0,0-0.014-0.021-0.014-0.021s-0.015-0.021-0.015-0.021l-0.015-0.021l-0.016-0.021    c0,0-0.017-0.021-0.017-0.021l-0.017-0.021l-0.018-0.021c-0.269-0.304-0.627-0.515-0.984-0.698    c-0.753-0.376-1.578-0.629-2.389-0.847c-2.135-0.555-4.391-0.861-6.584-1.087c-3.401-0.338-6.954-0.444-10.375-0.392    c-3.131,0.058-6.336,0.255-9.439,0.684c-1.735,0.252-3.515,0.564-5.184,1.106c-0.536,0.179-1.074,0.385-1.568,0.662    c-0.272,0.156-0.539,0.335-0.747,0.572l-0.018,0.021l-0.017,0.021l-0.017,0.021l-0.016,0.021l-0.015,0.021l-0.015,0.021    l-0.014,0.021c0,0-0.013,0.021-0.013,0.021l-0.013,0.021c0,0-0.012,0.021-0.012,0.021l-0.011,0.021l-0.011,0.021l-0.01,0.021    l-0.009,0.021l-0.009,0.021l-0.008,0.021l-0.008,0.021l-0.007,0.021l-0.006,0.021c0,0-0.006,0.02-0.006,0.02    s-0.005,0.02-0.005,0.02s-0.004,0.02-0.004,0.02l-0.004,0.02l-0.003,0.02l-0.003,0.02l-0.002,0.02l-0.001,0.02    c0,0-0.001,0.02-0.001,0.02C511.997,676.123,511.998,679.738,511.997,679.76z"/>
	</g>
	<g id="detail_80" display="none">
		
			<path fill="none" stroke="#00B9D2" stroke-width="2.75" stroke-linecap="round" stroke-linejoin="round" stroke-miterlimit="10" d="    M553.975,673.056l0.002,0.02l0.003,0.02c0,0,0.003,0.02,0.003,0.02l0.004,0.02c0,0,0.004,0.02,0.004,0.02s0.005,0.02,0.005,0.02    l0.005,0.02l0.006,0.02c0,0,0.007,0.02,0.007,0.02s0.007,0.02,0.007,0.02l0.008,0.02c0,0,0.009,0.02,0.009,0.02l0.009,0.02    c0,0,0.01,0.02,0.01,0.02s0.01,0.02,0.01,0.02s0.011,0.02,0.011,0.02l0.012,0.02c0,0,0.012,0.02,0.012,0.02l0.013,0.02l0.014,0.02    l0.014,0.02l0.015,0.02l0.016,0.02c0,0,0.016,0.02,0.016,0.02s0.017,0.02,0.017,0.02l0.018,0.02c0,0,0.018,0.02,0.018,0.02    s0.019,0.02,0.019,0.02s0.02,0.019,0.02,0.019c0.293,0.28,0.667,0.461,1.039,0.614c0.782,0.312,1.625,0.495,2.452,0.645    c2.174,0.375,4.448,0.491,6.652,0.534c3.418,0.053,6.967-0.138,10.371-0.476c3.115-0.319,6.293-0.783,9.349-1.47    c1.708-0.396,3.455-0.855,5.073-1.535c0.519-0.223,1.038-0.473,1.507-0.791c0.258-0.178,0.509-0.378,0.697-0.632    c0,0,0.016-0.022,0.016-0.022s0.015-0.022,0.015-0.022l0.015-0.022c0,0,0.014-0.022,0.014-0.022l0.013-0.022l0.013-0.022    l0.012-0.022l0.011-0.022l0.011-0.022l0.01-0.022c0,0,0.01-0.022,0.01-0.022l0.009-0.022l0.008-0.021c0,0,0.008-0.021,0.008-0.021    l0.007-0.021c0,0,0.006-0.021,0.006-0.021l0.006-0.021l0.005-0.021c0,0,0.005-0.021,0.005-0.021l0.004-0.021l0.003-0.021    l0.003-0.021l0.002-0.021l0.002-0.021l0.001-0.02c0,0,0-0.02,0-0.02s0-0.02,0-0.02l-0.001-0.02    c-0.003-0.038-0.303-3.627-0.307-3.665l-0.003-0.02l-0.003-0.02l-0.004-0.02c0,0-0.004-0.02-0.004-0.02s-0.005-0.02-0.005-0.02    l-0.005-0.02l-0.006-0.02l-0.007-0.02l-0.007-0.02c0,0-0.008-0.02-0.008-0.02l-0.009-0.02l-0.009-0.02c0,0-0.01-0.02-0.01-0.02    l-0.01-0.02l-0.011-0.02l-0.012-0.02c0,0-0.012-0.02-0.012-0.02s-0.013-0.02-0.013-0.02l-0.014-0.02c0,0-0.014-0.02-0.014-0.02    s-0.015-0.02-0.015-0.02l-0.016-0.02c0,0-0.016-0.02-0.016-0.02l-0.017-0.02c0,0-0.018-0.02-0.018-0.02l-0.018-0.02    c0,0-0.019-0.019-0.019-0.019s-0.02-0.02-0.02-0.02c-0.293-0.28-0.667-0.461-1.039-0.614c-0.782-0.311-1.625-0.495-2.452-0.645    c-2.174-0.375-4.448-0.491-6.652-0.534c-3.418-0.053-6.967,0.138-10.371,0.476c-3.115,0.319-6.293,0.782-9.349,1.47    c-1.708,0.396-3.455,0.855-5.074,1.535c-0.519,0.223-1.038,0.473-1.507,0.791c-0.258,0.178-0.509,0.378-0.697,0.632l-0.016,0.023    l-0.015,0.022l-0.015,0.022c0,0-0.014,0.022-0.014,0.022s-0.013,0.022-0.013,0.022l-0.013,0.022c0,0-0.012,0.022-0.012,0.022    l-0.011,0.022c0,0-0.011,0.022-0.011,0.022s-0.01,0.022-0.01,0.022l-0.01,0.022c0,0-0.009,0.022-0.009,0.022    s-0.008,0.021-0.008,0.021s-0.008,0.021-0.008,0.021s-0.007,0.021-0.007,0.021s-0.006,0.021-0.006,0.021l-0.006,0.021    c0,0-0.005,0.021-0.005,0.021s-0.005,0.021-0.005,0.021l-0.004,0.021c0,0-0.003,0.021-0.003,0.021l-0.003,0.021l-0.002,0.021    l-0.002,0.021l-0.001,0.02l0,0.02l0,0.02c0,0,0.001,0.02,0.001,0.02C553.671,669.431,553.973,673.034,553.975,673.056z"/>
	</g>
	<g id="detail_79" display="none">
		
			<path fill="none" stroke="#00B9D2" stroke-width="2.75" stroke-linecap="round" stroke-linejoin="round" stroke-miterlimit="10" d="    M469.94,674.875l-0.001,0.02l0,0.02c0,0,0.001,0.02,0.001,0.02l0.001,0.02l0.002,0.02c0,0,0.002,0.02,0.002,0.02    s0.003,0.021,0.003,0.021l0.004,0.021l0.004,0.021l0.005,0.021c0,0,0.005,0.021,0.005,0.021s0.006,0.021,0.006,0.021    s0.007,0.021,0.007,0.021l0.007,0.021l0.008,0.021c0,0,0.008,0.021,0.008,0.021l0.009,0.021c0,0,0.01,0.021,0.01,0.021l0.01,0.021    l0.011,0.021l0.012,0.021l0.012,0.021c0,0,0.013,0.022,0.013,0.022s0.014,0.022,0.014,0.022s0.014,0.022,0.014,0.022l0.015,0.022    l0.016,0.022l0.016,0.022l0.017,0.022c0.255,0.315,0.603,0.542,0.952,0.741c0.736,0.409,1.549,0.698,2.35,0.952    c2.108,0.649,4.349,1.054,6.53,1.377c3.383,0.488,6.928,0.75,10.347,0.85c3.13,0.08,6.341,0.026,9.46-0.267    c1.744-0.175,3.536-0.408,5.228-0.876c0.544-0.155,1.09-0.337,1.595-0.592c0.279-0.144,0.553-0.31,0.772-0.538l0.019-0.02    l0.018-0.02l0.017-0.02l0.017-0.02l0.016-0.02c0,0,0.016-0.02,0.016-0.02s0.015-0.02,0.015-0.02l0.014-0.02l0.014-0.02    c0,0,0.013-0.02,0.013-0.02s0.012-0.02,0.012-0.02l0.012-0.02l0.011-0.02l0.01-0.02l0.01-0.02c0,0,0.009-0.02,0.009-0.02    s0.008-0.02,0.008-0.02s0.008-0.02,0.008-0.02s0.007-0.02,0.007-0.02s0.007-0.02,0.007-0.02l0.006-0.02l0.005-0.02l0.005-0.02    c0,0,0.004-0.02,0.004-0.02s0.004-0.02,0.004-0.02l0.003-0.02c0,0,0.002-0.02,0.002-0.02l0.002-0.02    c0.002-0.038,0.161-3.636,0.163-3.674c0,0,0-0.02,0-0.02l-0.001-0.02l-0.001-0.02l-0.002-0.02l-0.002-0.02l-0.003-0.021    l-0.004-0.021c0,0-0.004-0.021-0.004-0.021s-0.005-0.021-0.005-0.021s-0.005-0.021-0.005-0.021s-0.006-0.021-0.006-0.021    l-0.007-0.021c0,0-0.007-0.021-0.007-0.021s-0.008-0.021-0.008-0.021l-0.008-0.021c0,0-0.009-0.021-0.009-0.021    s-0.01-0.021-0.01-0.021l-0.01-0.021c0,0-0.011-0.021-0.011-0.021s-0.012-0.021-0.012-0.021s-0.012-0.021-0.012-0.021    l-0.013-0.021l-0.014-0.022l-0.014-0.022l-0.015-0.022l-0.016-0.022c0,0-0.016-0.022-0.016-0.022s-0.017-0.022-0.017-0.022    c-0.255-0.315-0.603-0.542-0.952-0.741c-0.736-0.409-1.549-0.698-2.35-0.952c-2.108-0.649-4.349-1.054-6.53-1.377    c-3.383-0.488-6.928-0.75-10.347-0.85c-3.13-0.08-6.341-0.026-9.46,0.267c-1.744,0.175-3.536,0.408-5.228,0.876    c-0.543,0.155-1.09,0.337-1.595,0.592c-0.279,0.144-0.553,0.311-0.772,0.538c0,0-0.019,0.02-0.019,0.02s-0.018,0.02-0.018,0.02    l-0.017,0.02l-0.017,0.02l-0.016,0.02c0,0-0.016,0.02-0.016,0.02s-0.015,0.02-0.015,0.02s-0.014,0.02-0.014,0.02    s-0.014,0.02-0.014,0.02l-0.013,0.02l-0.012,0.02l-0.012,0.02l-0.011,0.02c0,0-0.01,0.02-0.01,0.02l-0.01,0.02l-0.009,0.02    c0,0-0.008,0.02-0.008,0.02s-0.008,0.02-0.008,0.02l-0.007,0.02c0,0-0.007,0.02-0.007,0.02l-0.006,0.02c0,0-0.005,0.02-0.005,0.02    s-0.005,0.02-0.005,0.02s-0.004,0.02-0.004,0.02s-0.004,0.02-0.004,0.02l-0.003,0.02l-0.002,0.02l-0.002,0.02    C470.1,671.242,469.941,674.854,469.94,674.875z"/>
	</g>
	<g id="detail_78" display="none">
		
			<path fill="none" stroke="#00B9D2" stroke-width="2.75" stroke-linecap="round" stroke-linejoin="round" stroke-miterlimit="10" d="    M469.96,674.407c-1.875-0.417-3.811-0.843-5.543-1.696c-0.573-0.291-1.154-0.664-1.538-1.185c-0.287-0.38-0.404-0.837-0.388-1.294    c0.058-1.076,0.569-2.064,1.121-2.968c2.058-3.187,5.354-6.848,7.795-9.808c4.095-4.731,8.512-9.876,13.046-14.142    c1.646-1.523,3.397-2.981,5.314-4.15c1.332-0.814,2.771-1.475,4.234-2.014c1.886-0.7,3.88-1.139,5.87-1.423    c6.037-0.805,13.244-0.815,19.368-0.911c6.241-0.085,26.94,0.113,32.848-0.406c3.791-0.272,7.659-0.717,11.354-1.628    c3.147-0.784,6.273-1.911,8.965-3.75c6.55-4.439,9.2-12.389,10.388-19.875c1.01-6.559,1.263-13.279,1.077-19.907    c-0.398-13.51-3.117-26.97-6.943-39.905c-3.854-12.894-8.623-25.727-14.584-37.801c-2.863-5.673-6.044-11.353-9.982-16.356    c-2.451-3.073-5.256-6.026-8.789-7.843c-1.664-0.856-3.485-1.423-5.337-1.685c-2.025-0.29-4.097-0.252-6.127-0.04    c-2.901,0.308-5.786,0.992-8.54,1.949c-2.771,0.972-5.457,2.247-7.91,3.865c-2.572,1.689-4.854,3.823-6.748,6.245    c-2.224,2.829-3.954,6.052-5.335,9.367c-3.549,8.593-5.102,17.923-5.921,27.143c-1.034,11.452-0.97,26.364-1.033,37.979    c0.018,5.716,0.018,12.369,0.482,18.028c0.392,5.036,0.969,10.843,1.658,15.841c0.634,4.4,1.51,8.859,3.031,13.045    c3.472,9.594,9.814,15.702,20.429,15.686"/>
	</g>
	<g id="detail_77" display="none">
		
			<path fill="none" stroke="#00B9D2" stroke-width="2.75" stroke-linecap="round" stroke-linejoin="round" stroke-miterlimit="10" d="    M487.946,679.31c-1.421,2.194-2.949,4.404-4.682,6.363c-1.129,1.268-2.375,2.466-3.812,3.38c-1.674,1.081-3.632,1.624-5.547,2.108    c-2.745,0.675-5.619,1.009-8.437,1.204c-3.649,0.25-8.213,0.319-11.89,0.374c-7.596,0.052-17.407,0.085-24.965-0.163    c-2.909-0.11-6.019-0.268-8.897-0.687c-1.823-0.263-3.661-0.646-5.428-1.167c-1.133-0.331-2.275-0.726-3.306-1.308    c-2.327-1.303-4.157-3.327-5.796-5.396c-2.668-3.43-4.948-7.266-7.089-11.042"/>
	</g>
	<g id="detail_76" display="none">
		
			<line fill="none" stroke="#00B9D2" stroke-width="2.75" stroke-linecap="round" stroke-linejoin="round" stroke-miterlimit="10" x1="511.997" y1="677.362" x2="507.145" y2="677.358"/>
	</g>
	<g id="detail_75" display="none">
		
			<path fill="none" stroke="#00B9D2" stroke-width="2.75" stroke-linecap="round" stroke-linejoin="round" stroke-miterlimit="10" d="    M555.58,499.655c6.207-2.362,12.738-3.945,19.339-4.668c6.194-0.672,12.514-0.592,18.658,0.483    c4.407,0.778,8.764,2.076,12.795,4.034c3.42,1.657,6.613,3.822,9.412,6.391c6.066,5.54,10.234,12.841,13.342,20.372    c3.032,7.371,5.252,15.151,6.898,22.943c5.089,24.492,3.969,44.855-4.695,68.385c-2.519,6.826-5.565,13.563-9.176,19.884    c-2.926,5.095-6.292,10.059-10.243,14.419c-5.709,6.346-12.775,11.47-20.533,15.021"/>
	</g>
	<g id="detail_74" display="none">
		
			<path fill="none" stroke="#00B9D2" stroke-width="2.75" stroke-linecap="round" stroke-linejoin="round" stroke-miterlimit="10" d="    M556.719,674.674c-1.79,0.23-5.396,0.66-7.189,0.856"/>
	</g>
	<g id="detail_73">
		
			<path fill="none" stroke="#00B9D2" stroke-width="2.75" stroke-linecap="round" stroke-linejoin="round" stroke-miterlimit="10" d="    M950.901,255.611c-0.003,6.736-2.607,11.344-9.682,12.206c-1.759,0.22-3.441-0.916-3.893-2.631    c-0.064-0.24-0.104-0.491-0.117-0.739c-0.003-0.061-0.005-0.128-0.005-0.187c0,0,0-29.855,0-29.855s0-29.855,0-29.855    c0-0.049,0.002-0.136,0.005-0.187c0.013-0.248,0.053-0.5,0.117-0.739c0.224-0.846,0.772-1.602,1.507-2.077    c0.698-0.456,1.558-0.656,2.385-0.554c1.595,0.204,3.192,0.607,4.61,1.383c1.237,0.67,2.313,1.641,3.091,2.814    c0.614,0.918,1.057,1.951,1.36,3.011c0.328,1.148,0.502,2.345,0.577,3.536c0.02,0.33,0.035,0.701,0.041,1.032    c0,0,0.004,0.43,0.004,0.43V255.611z"/>
	</g>
	<g id="detail_71">
		
			<path fill="none" stroke="#00B9D2" stroke-width="2.75" stroke-linecap="round" stroke-linejoin="round" stroke-miterlimit="10" d="    M721.917,398.486c0.074-3.302,0.889-6.725,3.01-9.329c2.993-3.723,7.886-4.906,12.478-4.656    c7.514,0.424,14.534,3.994,20.272,8.712c4.002,3.287,7.527,7.169,10.676,11.271c4.57,5.975,8.484,12.579,11.922,19.262"/>
	</g>
	<g id="detail_70">
		
			<path fill="none" stroke="#00B9D2" stroke-width="2.75" stroke-linecap="round" stroke-linejoin="round" stroke-miterlimit="10" d="    M895.248,285.355c5.994-3.136,12.208-6.412,17.675-10.398c2.115-1.578,4.202-3.301,5.748-5.46    c0.466-0.657,0.873-1.362,1.201-2.098c0.562-1.274,0.937-2.654,1.278-4.002c0.756-3.074,1.083-6.292,1.268-9.448    c0.56-9.245,0.281-37.287,0.361-46.961c-0.009-1.461,0.018-3.351-0.146-4.806c-0.118-1.079-0.36-2.166-0.877-3.128    c-0.511-0.968-1.28-1.78-2.125-2.467"/>
	</g>
	<g id="detail_57">
		
			<polyline fill="none" stroke="#00B9D2" stroke-width="2.75" stroke-linecap="round" stroke-linejoin="round" stroke-miterlimit="10" points="    922.579,250.276 937.205,250.276 937.205,218.536 922.778,218.536   "/>
	</g>
	<g id="detail_55">
		
			<path fill="none" stroke="#00B9D2" stroke-width="2.75" stroke-linecap="round" stroke-linejoin="round" stroke-miterlimit="10" d="    M901.757,65.158c2.058,0.047,4.159,0.204,6.185,0.58c1.177,0.232,2.362,0.55,3.441,1.086c1.068,0.525,2.046,1.257,2.808,2.174    c1.159,1.418,1.792,3.187,2.341,4.912c0.961,3.177,1.651,6.668,2.261,9.938c7.305,40.171,4.891,81.534-0.305,121.816    c-2.244,16.402-5.054,33.063-10.318,48.794c-7.32,21.971-18.801,42.885-30.071,63.057c-12.052,20.932-25.251,42.894-39.514,62.377    c-6.641,8.925-13.836,17.751-22.235,25.087c-6.471,5.638-13.704,10.54-21.56,14.032c-5.874,2.618-12.149,4.44-18.489,5.502    c-9.153,1.527-18.753,1.57-27.675-1.212c-4.033-1.257-7.896-3.132-11.356-5.556c-3.652-2.551-6.89-5.718-9.571-9.273    c-7.381-9.731-10.286-21.915-11.113-33.913c-0.845-12.451,0.298-25.045,2.328-37.333c2.885-17.082,7.597-34.14,12.971-50.597    c5.823-17.739,13.029-36.043,20.565-53.125c4.694-10.949,14.651-30.685,18.806-41.774c2.396-6.374,4.217-13.051,5.389-19.758    c3.437-19.414,1.578-39.444-2.65-58.586c-0.221-0.968,0.083-2.037,0.785-2.741c0.182-0.184,0.39-0.35,0.614-0.481    c2.841-1.621,49.506-27.384,51.085-28.108c4.363-2.231,9.033-4.587,13.608-6.35c3.513-1.37,7.195-2.49,10.914-3.132    c5.342-0.941,10.967-1.075,16.381-1.245c0,0,20.797-0.233,20.797-0.233c3.134-0.107,6.516-0.206,9.618-0.647    c0.659-0.102,1.342-0.215,1.976-0.427c0.416-0.14,0.826-0.33,1.151-0.631c0.257-0.236,0.446-0.54,0.567-0.866    c0.248-0.684,0.283-1.429,0.298-2.151c0.009-1.649-0.209-3.32-0.511-4.939c-0.273-1.369-0.591-2.767-1.242-4.012    c-0.432-0.83-1.032-1.572-1.748-2.173c-0.922-0.783-2.016-1.341-3.145-1.761c-1.48-0.549-3.056-0.909-4.604-1.205    c-3.043-0.579-6.497-0.924-9.591-1.225c-4.99-0.449-10.59-0.81-15.594-1.014c-2.371-0.074-5.138-0.196-7.5-0.09    c-1.028,0.049-2.089,0.135-3.097,0.353c-2.32,0.473-4.307,1.889-6.089,3.384c-1.022,0.87-1.999,1.821-2.9,2.816    c-0.486,0.552-1.003,1.115-1.405,1.732c-0.87,1.347-1.129,2.979-1.327,4.542c-0.429,3.884-0.332,8.037-0.286,11.945"/>
	</g>
	<g id="detail_54">
		
			<path fill="none" stroke="#00B9D2" stroke-width="2.75" stroke-linecap="round" stroke-linejoin="round" stroke-miterlimit="10" d="    M781.369,106.888c-1.205-4.904-1.923-9.976-1.742-15.033c0.082-3.369,0.769-7.012,1.388-10.33    c0.465-2.705,0.537-5.678-0.888-8.122c-1.013-1.748-2.579-3.103-4.136-4.356c-0.859-0.691-2.697-2.025-3.481-2.785    c-0.555-0.525-1.071-1.117-1.387-1.819c-0.501-1.096-0.397-2.36-0.091-3.496c0.198-0.722,0.494-1.423,0.904-2.05    c0.316-0.48,0.708-0.92,1.191-1.236c0.989-0.654,2.23-0.706,3.377-0.61c0.918,0.078,1.878,0.267,2.78,0.463    c2.31,0.524,5.385,1.279,7.701,1.58c5.731,0.805,11.585,0.157,17.264-0.767c4.441-0.729,11.683-2.321,16.138-3.065    c1.396-0.225,2.917-0.431,4.328-0.522c1.584-0.105,3.2-0.084,4.77,0.172c1.654,0.277,3.3,0.736,4.806,1.482    c1.042,0.52,2.014,1.198,2.812,2.049c0.562,0.583,0.993,1.288,1.264,2.051c0.45,1.253,0.619,2.596,0.743,3.915    c0.32,3.798,0.167,7.852,0.046,11.662"/>
	</g>
	<g id="detail_53">
		
			<path fill="none" stroke="#00B9D2" stroke-width="2.75" stroke-linecap="round" stroke-linejoin="round" stroke-miterlimit="10" d="    M842.704,70.523c-0.852,0.172-2.566,0.534-3.415,0.722"/>
	</g>
	<g id="detail_52">
		
			<path fill="none" stroke="#00B9D2" stroke-width="2.75" stroke-linecap="round" stroke-linejoin="round" stroke-miterlimit="10" d="    M923.388,141.044c0.215,0.004,1.191-0.011,1.383,0.012c0.197,0.017,0.398,0.054,0.588,0.108c0.841,0.235,1.569,0.836,1.958,1.617    c0.138,0.275,0.237,0.573,0.29,0.876c0.021,0.123,0.036,0.254,0.043,0.379c0.002,0.051,0.004,0.113,0.004,0.163    c-0.007,0.157,0.007,25.156-0.002,25.288c-0.019,0.58-0.204,1.155-0.526,1.638c-0.431,0.652-1.113,1.131-1.872,1.316    c-0.21,0.052-0.43,0.082-0.646,0.09c-0.026-0.006-0.083,0.007-0.109,0.002c0,0-2.537,0-2.537,0"/>
	</g>
	<g id="detail_30">
		
			<path fill="none" stroke="#00B9D2" stroke-width="2.75" stroke-linecap="round" stroke-linejoin="round" stroke-miterlimit="10" d="    M922.237,110.019c0.499,0.002,1.084-0.032,1.564,0.12c0.664,0.187,1.262,0.6,1.672,1.154c0.227,0.305,0.399,0.654,0.502,1.02    c0.064,0.226,0.103,0.463,0.115,0.697c0.021,0.189-0.006,28.276,0.004,28.467"/>
	</g>
	<g id="detail_27">
		
			<path fill="none" stroke="#00B9D2" stroke-width="2.75" stroke-linecap="round" stroke-linejoin="round" stroke-miterlimit="10" d="    M926.095,172.098c-0.005,0.178,0.007,28.292-0.003,28.444c-0.01,0.22-0.043,0.441-0.099,0.654    c-0.086,0.33-0.226,0.647-0.412,0.932c-0.346,0.531-0.856,0.953-1.443,1.192c-0.442,0.186-0.927,0.251-1.404,0.236"/>
	</g>
</g>
<g id="outline">
	<g id="shell_front">
		
			<path fill="none" stroke="#00B9D2" stroke-width="3.5" stroke-linecap="round" stroke-linejoin="round" stroke-miterlimit="10" d="    M213.914,61.881c0,0-1.496-8.413-1.496-8.413c-0.017-0.086-0.034-0.179-0.054-0.265c-0.07-0.301-0.169-0.597-0.294-0.88    c-0.398-0.905-1.071-1.687-1.908-2.213c-0.528-0.334-1.119-0.567-1.732-0.685c-7.759-1.451-15.73-2.089-23.612-1.508    c-5.65,0.413-11.41,1.05-16.902,2.476c-9.059,2.327-17.543,6.651-25.441,11.591c0,0-1.671,1.063-1.671,1.063    s-0.054,0.035-0.054,0.035s-0.053,0.036-0.053,0.036c-0.14,0.096-0.284,0.204-0.413,0.314c-0.337,0.285-0.638,0.618-0.888,0.981    c-0.338,0.491-0.589,1.045-0.734,1.623c-0.034,0.143-0.068,0.297-0.09,0.443c0,0-1.208,7.702-1.208,7.702    s-5.178,1.156-5.178,1.156s-0.07,0.017-0.07,0.017s-0.069,0.017-0.069,0.017s-0.069,0.018-0.069,0.018s-0.069,0.019-0.069,0.019    s-0.069,0.019-0.069,0.019s-0.069,0.02-0.069,0.02c-0.388,0.116-0.774,0.262-1.14,0.438c-1.223,0.585-2.281,1.483-3.161,2.507    c-0.863,1.005-1.581,2.137-2.196,3.308c-7.499,15.888-15.012,33.244-21.41,49.6C91.082,164.081,80.61,198.269,74.968,233.04    c-3.162,18.869-4.82,39.283-6.098,58.392c-1.215,20.801-1.591,42.132,1.213,62.82c1.88,13.539,4.76,27.167,10.18,39.764    c2.958,6.757,6.779,13.375,12.445,18.22c4.684,4.055,10.444,6.645,16.292,8.543c5.411,1.75,11.034,3.044,16.641,3.979    c3.101,0.504,6.307,0.924,9.439,1.143c2.234,0.153,4.523,0.232,6.754,0.079c1.328-0.102,2.649-0.29,3.909-0.726    c1.033-0.353,2.009-0.881,2.864-1.559c1.407-1.112,2.505-2.575,3.464-4.078c0.37-0.578,0.747-1.229,1.083-1.825    c0.817-1.471,1.856-3.542,2.592-5.092c6.819-14.654,14.115-32.236,20.083-47.294c3.92-9.749,9.145-24.786,12.684-34.853    c2.504-6.803,5.194-13.75,9.223-19.808c2.214-3.344,4.847-6.437,7.867-9.079c2.178-1.925,4.595-3.622,7.205-4.908    c3.646-1.81,7.64-2.889,11.643-3.555c5.327-0.884,10.879-1.087,16.277-1.042c2.994,0.034,6.558,0.185,9.547,0.376    c25.384,1.685,54.554,2.527,80.061,2.666c40.731,0.158,88.313,0.063,128.718-2.814c4.912-0.248,10.147-0.34,15.06-0.063    c5.159,0.301,10.377,0.967,15.305,2.575c2.777,0.909,5.481,2.167,7.915,3.789c5.138,3.459,9.366,8.189,12.61,13.443    c2.875,4.638,5.062,9.762,7.011,14.848c3.236,8.762,8.187,23.38,11.536,32.038c4.8,12.432,11.214,28.113,16.546,40.369    c2.285,5.241,5.304,12.07,7.929,17.168c0,0,0.45,0.836,0.45,0.836s0.222,0.4,0.222,0.4s0.22,0.388,0.22,0.388    c0.379,0.682,0.857,1.434,1.29,2.088c0.852,1.262,1.837,2.479,3.038,3.427c0.816,0.647,1.747,1.161,2.728,1.511    c1.411,0.508,2.916,0.706,4.406,0.798c4.542,0.225,9.136-0.274,13.629-0.903c6.358-0.945,12.725-2.345,18.845-4.322    c5.846-1.899,11.612-4.487,16.292-8.543c5.992-5.133,9.923-12.221,12.952-19.407c5.082-12.267,7.862-25.461,9.673-38.577    c2.8-20.687,2.437-42.021,1.213-62.82c-1.31-19.114-2.935-39.513-6.098-58.392c-5.644-34.769-16.109-68.963-28.897-101.739    c-6.415-16.342-13.892-33.731-21.41-49.6c-0.643-1.22-1.393-2.402-2.309-3.437c-0.873-0.987-1.914-1.851-3.114-2.409    c-0.262-0.118-0.528-0.232-0.801-0.321c-0.152-0.056-0.323-0.099-0.479-0.144c-0.063-0.015-0.146-0.038-0.208-0.052    c0,0-5.178-1.156-5.178-1.156l-1.208-7.702c0.001-0.031-0.02-0.096-0.021-0.126c-0.028-0.146-0.061-0.299-0.102-0.442    c-0.148-0.532-0.387-1.042-0.7-1.497c-0.251-0.364-0.551-0.696-0.888-0.981c-0.247-0.246-1.856-1.226-2.191-1.448    c-7.898-4.94-16.381-9.264-25.441-11.591c-5.492-1.426-11.252-2.063-16.902-2.476c-7.881-0.581-15.853,0.056-23.612,1.508    c-0.613,0.117-1.205,0.351-1.732,0.685c-0.81,0.51-1.467,1.258-1.868,2.127c-0.143,0.309-0.256,0.635-0.333,0.966    c-0.018,0.085-0.04,0.178-0.054,0.265c0,0-1.496,8.413-1.496,8.413c-2.134,0.129-4.29,0.39-6.368,0.903    c-11.691-2.736-24.075-4.398-36.01-5.715c-31.636-4.576-65.151-4.894-97.104-5.022c-31.962,0.129-65.456,0.445-97.104,5.022    c-11.938,1.318-24.316,2.979-36.01,5.715C218.205,62.271,216.048,62.011,213.914,61.881z"/>
	</g>
	<g id="shell_back" display="none">
		
			<path fill="none" stroke="#00B9D2" stroke-width="3.5" stroke-linecap="round" stroke-linejoin="round" stroke-miterlimit="10" d="    M207.942,524.406c-0.845-5.199-2.089-10.387-3.925-15.329c-1.625-4.362-3.769-8.609-6.776-12.188    c-1.458-1.739-3.13-3.321-4.963-4.66c-3.6-2.619-7.759-4.433-12.05-5.578c-2.411-0.632-4.902-1.058-7.394-1.172    c-2.754-0.132-5.571,0.169-8.143,1.2c-2.729,1.074-5.102,2.902-7.152,4.974c-2.384,2.411-4.448,5.183-6.325,8.001    c-12.583-4.756-26.81-6.573-40.05-3.785c-4.17,0.899-8.273,2.29-12.045,4.295c-3.232,1.713-6.233,3.898-8.864,6.438    c-6.012,5.781-10.067,13.285-13.118,20.972c-2.943,7.454-5.1,15.294-6.676,23.146c-2.328,11.73-3.403,23.83-2.301,35.763    c1.195,13.081,4.91,25.886,10.025,37.952c5.184,11.954,11.841,23.692,21.7,32.411c6.347,5.65,13.929,9.844,21.923,12.669    c2.085,0.752,4.66,1.273,6.798,1.824c0.013,0.476-0.046,1.489,0.074,1.94c0.152,0.691,0.549,1.325,1.106,1.763    c0.297,0.235,0.638,0.415,0.999,0.528c0.244,0.076,0.499,0.122,0.754,0.137c0.055,0.003,0.118,0.005,0.173,0.005    c0,0,18.019,0,18.019,0s1.498-0.363,1.498-0.363c1.752,0.164,5.288,0.456,7.045,0.585c-0.703,0.223-1.332,0.673-1.769,1.267    c-0.44,0.592-0.686,1.325-0.693,2.063c0.008,0.699,0.257,1.393,0.697,1.936c0.437,0.546,1.062,0.938,1.743,1.094    c0.188,0.044,0.382,0.07,0.575,0.079c0.045,0.002,0.095,0.003,0.139,0.003c0,0,12.589,0,12.589,0s12.589,0,12.589,0    c0.043,0,0.098-0.001,0.141-0.003c0.195-0.009,0.391-0.036,0.58-0.08c0.701-0.163,1.341-0.575,1.779-1.147    c0.422-0.546,0.657-1.234,0.655-1.924c-0.01-0.699-0.232-1.393-0.63-1.967c10.021,0.199,20.6,0.162,30.595-0.497    c1.716,2.829,3.56,5.689,5.68,8.233c1.503,1.784,3.202,3.486,5.289,4.574c1.329,0.695,2.803,1.11,4.247,1.493    c4.375,1.132,9.029,1.37,13.531,1.532v14.626c-0.046,0-13.988-0.001-14.031,0c-0.09,0.001-0.188,0.006-0.278,0.014    c-0.203,0.018-0.408,0.055-0.605,0.108c-0.37,0.099-0.726,0.259-1.045,0.47c-0.55,0.362-0.996,0.88-1.274,1.477    c-0.282,0.602-0.39,1.285-0.309,1.945c0.472,3.818,2.098,6.982,5.77,8.551c2.022,0.866,4.253,1.126,6.437,1.13    c0,0,42.411,0,42.411,0s0.43-0.004,0.43-0.004c0.533-0.009,1.091-0.037,1.622-0.086c1.498-0.138,2.998-0.445,4.384-1.041    c3.667-1.566,5.299-4.732,5.77-8.551c0.081-0.66-0.028-1.343-0.309-1.945c-0.277-0.597-0.724-1.115-1.274-1.477    c-0.32-0.211-0.675-0.371-1.045-0.47c-0.197-0.053-0.402-0.089-0.605-0.108c-0.09-0.008-0.188-0.013-0.278-0.014    c-0.059-0.01-13.972,0.007-14.031,0l-0.003-14.526c0.013-0.009,0.02-0.014,0.02-0.014c0.013-0.009,0.02-0.013,0.02-0.013    c0.013-0.008,0.02-0.012,0.02-0.012c0.013-0.007,0.02-0.01,0.02-0.01c0.014-0.006,0.02-0.009,0.02-0.009    c0.014-0.006,0.02-0.008,0.02-0.008c0.014-0.005,0.02-0.008,0.02-0.008c0.014-0.004,0.02-0.007,0.02-0.007    c0.08-0.024,0.147-0.028,0.217-0.032c1.228-0.055,3.105-0.122,4.308-0.213c2.961-0.204,5.97-0.563,8.847-1.306    c1.803-0.471,3.636-1.017,5.207-2.05c2.011-1.304,3.642-3.123,5.119-4.991c2.667-3.43,4.949-7.266,7.089-11.042h26.942v3.591    c0,0,35.515,0,35.515,0s0-3.591,0-3.591h26.942c2.141,3.777,4.422,7.611,7.089,11.042c1.477,1.868,3.108,3.687,5.119,4.991    c1.57,1.034,3.403,1.579,5.207,2.05c2.877,0.744,5.887,1.103,8.847,1.306c1.197,0.091,3.098,0.162,4.308,0.213    c0.076,0.004,0.15,0.012,0.211,0.03c0.014,0.004,0.02,0.006,0.02,0.006c0.014,0.005,0.02,0.007,0.02,0.007    c0.014,0.005,0.02,0.008,0.02,0.008c0.014,0.006,0.02,0.009,0.02,0.009c0.014,0.007,0.02,0.01,0.02,0.01    c0.013,0.007,0.02,0.011,0.02,0.011c0.013,0.008,0.02,0.012,0.02,0.012c0.066-0.004,0.003,14.531,0.024,14.544    c-0.046,0-13.988-0.001-14.03,0c-0.091,0.001-0.188,0.006-0.278,0.014c-0.203,0.018-0.408,0.055-0.605,0.108    c-0.37,0.099-0.726,0.259-1.045,0.47c-0.55,0.362-0.996,0.88-1.274,1.477c-0.282,0.602-0.39,1.285-0.309,1.945    c0.48,3.883,2.15,7.062,5.904,8.608c1.289,0.534,2.673,0.824,4.058,0.966c0.546,0.215,22.284,0.068,23.45,0.108    c0,0,21.206,0,21.206,0l0.43-0.004c0,0,0.211-0.005,0.211-0.005c0.461-0.012,0.952-0.039,1.411-0.081    c1.401-0.129,2.803-0.406,4.113-0.928c3.834-1.519,5.553-4.711,6.041-8.664c0.081-0.66-0.028-1.343-0.309-1.945    c-0.277-0.597-0.724-1.115-1.274-1.477c-0.32-0.211-0.675-0.371-1.045-0.47c-0.197-0.053-0.402-0.089-0.605-0.108    c-0.09-0.008-0.188-0.013-0.278-0.014c-0.059-0.01-13.972,0.007-14.031,0v-14.626c4.505-0.163,9.155-0.4,13.531-1.532    c1.594-0.421,3.218-0.885,4.654-1.715c1.555-0.889,2.893-2.124,4.092-3.444c1.82-2.017,3.412-4.31,4.886-6.589    c3.11,0.155,6.383,0.18,9.491,0.006c2.165-0.129,4.384-0.335,6.508-0.785c0.718-0.157,1.45-0.347,2.135-0.615    c0.372-0.148,0.743-0.32,1.066-0.559c0,0,4.852,0.004,4.852,0.004c0,0.02-0.001,2.399,0,2.417l0.001,0.02    c0,0,0.001,0.02,0.001,0.02s0.002,0.02,0.002,0.02l0.003,0.02c0,0,0.003,0.02,0.003,0.02l0.004,0.02c0,0,0.004,0.02,0.004,0.02    l0.005,0.02c0,0,0.006,0.021,0.006,0.021s0.006,0.021,0.006,0.021s0.007,0.021,0.007,0.021l0.008,0.021l0.008,0.021l0.009,0.021    l0.009,0.021l0.01,0.021l0.011,0.021c0,0,0.011,0.021,0.011,0.021l0.012,0.021c0,0,0.013,0.021,0.013,0.021    s0.013,0.021,0.013,0.021s0.014,0.021,0.014,0.021s0.015,0.021,0.015,0.021s0.015,0.021,0.015,0.021l0.016,0.021l0.017,0.021    l0.017,0.021l0.018,0.021c0.269,0.304,0.627,0.515,0.984,0.698c0.753,0.376,1.578,0.629,2.389,0.847    c2.135,0.555,4.391,0.861,6.584,1.087c3.401,0.338,6.954,0.443,10.375,0.392c3.131-0.058,6.336-0.255,9.439-0.684    c1.735-0.252,3.515-0.564,5.184-1.106c0.536-0.179,1.074-0.385,1.568-0.662c0.272-0.156,0.539-0.335,0.747-0.572    c0,0,0.018-0.021,0.018-0.021s0.017-0.021,0.017-0.021l0.017-0.021l0.016-0.021c0,0,0.015-0.021,0.015-0.021    s0.015-0.021,0.015-0.021s0.014-0.021,0.014-0.021l0.013-0.021l0.013-0.021l0.012-0.021l0.011-0.021c0,0,0.011-0.021,0.011-0.021    l0.01-0.021c0,0,0.009-0.021,0.009-0.021l0.009-0.021l0.008-0.021l0.008-0.021l0.007-0.021c0,0,0.006-0.021,0.006-0.021    s0.006-0.021,0.006-0.021l0.005-0.02c0,0,0.004-0.02,0.004-0.02s0.004-0.02,0.004-0.02l0.003-0.02l0.003-0.02    c0,0,0.002-0.02,0.002-0.02s0.001-0.02,0.001-0.02l0.001-0.02c0-0.045,0.001-3.64,0-3.685c-0.001-0.018-0.002-0.027-0.002-0.027    c-0.002-0.018-0.003-0.027-0.003-0.027c-0.002-0.018-0.004-0.027-0.004-0.027c-0.003-0.018-0.005-0.027-0.005-0.027    c-0.004-0.018-0.006-0.027-0.006-0.027c-0.005-0.018-0.007-0.028-0.007-0.028c-0.005-0.018-0.008-0.028-0.008-0.028    c-0.006-0.018-0.009-0.028-0.009-0.028c-0.052-0.142-0.124-0.245-0.209-0.346c1.793-0.196,5.399-0.626,7.189-0.856    c1.513,0.353,3.1,0.517,4.648,0.627c2.354,0.158,4.861,0.157,7.22,0.075c5.462-0.223,10.992-0.817,16.317-2.077    c1.72-0.431,3.473-0.913,5.065-1.705c0.531-0.28,1.081-0.59,1.452-1.074c0,0,0.016-0.022,0.016-0.022s0.015-0.022,0.015-0.022    l0.015-0.022c0,0,0.014-0.022,0.014-0.022l0.013-0.022l0.013-0.022l0.012-0.022l0.011-0.022l0.011-0.022l0.01-0.022    c0,0,0.01-0.022,0.01-0.022l0.009-0.022l0.008-0.021c0,0,0.008-0.021,0.008-0.021l0.007-0.021c0,0,0.006-0.021,0.006-0.021    l0.006-0.021l0.005-0.021c0,0,0.005-0.021,0.005-0.021l0.004-0.021l0.003-0.021l0.003-0.021l0.002-0.021l0.002-0.021l0.001-0.02    c0,0,0-0.02,0-0.02s0-0.02,0-0.02l-0.001-0.02c-0.001-0.024-0.25-2.98-0.251-3.004c8.065-3.688,15.37-9.081,21.2-15.77    c3.66-4.168,6.817-8.865,9.576-13.67c3.61-6.321,6.656-13.057,9.176-19.884c8.666-23.534,9.783-43.901,4.695-68.385    c-1.646-7.792-3.865-15.572-6.898-22.943c-3.108-7.531-7.275-14.832-13.342-20.372c-2.799-2.57-5.993-4.735-9.412-6.392    c-4.031-1.957-8.388-3.257-12.795-4.034c-6.144-1.075-12.464-1.155-18.658-0.483c-6.602,0.724-13.133,2.306-19.339,4.668    c-1.879-2.819-3.941-5.59-6.325-8.001c-2.049-2.072-4.423-3.899-7.152-4.974c-2.573-1.031-5.389-1.332-8.143-1.2    c-2.491,0.114-4.983,0.539-7.394,1.172c-4.291,1.144-8.45,2.959-12.05,5.578c-1.833,1.339-3.505,2.921-4.963,4.66    c-3.007,3.579-5.151,7.826-6.776,12.188c-1.836,4.942-3.08,10.13-3.925,15.329c-8.278,3.858-16.911,8.015-25.58,10.827    c-4.706,1.523-9.636,2.594-14.555,3.117c-3.45,0.385-7.307,0.542-10.791,0.621c0,0-5.521,0.063-5.521,0.063s-178.016,0-178.016,0    c-5.13-0.043-11.212-0.107-16.312-0.684c-4.916-0.523-9.852-1.594-14.555-3.117C224.863,532.424,216.188,528.26,207.942,524.406z"/>
	</g>
	<g id="shell_front_top">
		
			<path fill="none" stroke="#00B9D2" stroke-width="3.5" stroke-linecap="round" stroke-linejoin="round" stroke-miterlimit="10" d="    M901.757,65.158c-0.096-1.555-0.331-3.118-0.669-4.638c-0.235-1.031-0.526-2.068-1.008-3.013    c-0.683-1.376-1.841-2.471-3.175-3.212c-1.414-0.791-2.999-1.257-4.568-1.633c-2.267-0.532-4.707-0.871-7.021-1.15    c-4.428-0.513-9.511-0.896-13.965-1.167c-2.999-0.17-6.749-0.356-9.744-0.414c-1.578-0.022-3.291-0.038-4.862,0.094    c-1.591,0.124-3.193,0.465-4.603,1.237c-1.76,0.947-3.329,2.233-4.775,3.603c-0.679,0.649-1.349,1.348-1.966,2.056    c-0.374,0.439-0.774,0.893-1.08,1.384c-0.69,1.092-0.976,2.384-1.173,3.646c-0.41,2.788-0.419,5.756-0.442,8.572    c-0.852,0.172-2.566,0.534-3.415,0.722c0.002-3.026,0.059-6.177-0.491-9.159c-0.177-0.889-0.426-1.783-0.884-2.572    c-0.483-0.828-1.19-1.507-1.945-2.086c-1.88-1.409-4.191-2.124-6.483-2.515c-2.172-0.354-4.402-0.256-6.581-0.005    c-3.47,0.379-10.658,1.936-14.184,2.607c-5.202,1.003-10.574,1.889-15.879,1.944c-3.076,0.049-6.175-0.306-9.182-0.952    c-2.285-0.448-5.435-1.411-7.763-1.49c-0.701-0.018-1.42,0.043-2.081,0.293c-1.334,0.491-2.153,1.793-2.611,3.078    c-0.428,1.249-0.649,2.678-0.136,3.934c0.255,0.623,0.674,1.166,1.14,1.646c0.899,0.931,2.745,2.259,3.78,3.079    c1.557,1.253,3.123,2.608,4.136,4.356c1.425,2.444,1.353,5.416,0.888,8.122c-0.619,3.326-1.305,6.956-1.388,10.33    c-0.181,5.057,0.537,10.129,1.742,15.033c0,0-5.885,3.223-5.885,3.223c-0.031,0.018-0.068,0.037-0.098,0.056    c-0.107,0.065-0.212,0.135-0.31,0.213c-0.345,0.27-0.631,0.616-0.828,1.007c-0.24,0.474-0.351,1.012-0.317,1.543    c0.01,0.154,0.032,0.305,0.064,0.455c0.285,1.252,0.787,3.729,1.042,4.982c1.307,6.653,2.332,13.588,2.891,20.343    c1.209,14.365,0.343,29.038-3.437,42.982c-1.24,4.609-2.844,9.225-4.643,13.644c-3.706,9.081-13.513,29.134-17.398,38.168    c-8.143,18.47-15.81,38.1-21.925,57.335c-4.777,15.092-8.979,30.768-11.611,46.387c-1.759,10.606-2.833,21.467-2.57,32.227    c0.204,7.373,1.022,14.845,3.049,21.953c4.503,15.937,15.419,28.603,31.863,32.631c7.818,1.935,16.043,1.863,23.97,0.649    c6.687-1.033,13.303-2.891,19.49-5.642c8.709-3.864,16.64-9.431,23.64-15.865c8.615-7.947,15.997-17.398,22.847-26.881    c10.68-14.903,21.22-32.077,30.595-47.868c7.888-13.617,16.567-28.963,23.451-43.075c5.105-2.65,10.469-5.522,15.25-8.701    c2.442-1.645,4.87-3.411,6.883-5.574c0.928-1.006,1.75-2.125,2.343-3.362c0.594-1.236,0.973-2.588,1.324-3.911    c1.133-4.375,1.37-9.029,1.532-13.531c0,0,14.626,0,14.626,0c0,0.046-0.001,13.988,0,14.03c0.001,0.091,0.006,0.188,0.014,0.278    c0.018,0.203,0.055,0.408,0.108,0.605c0.099,0.37,0.259,0.726,0.47,1.045c0.362,0.55,0.88,0.996,1.477,1.274    c0.602,0.282,1.285,0.39,1.945,0.309c3.818-0.472,6.982-2.098,8.551-5.77c0.866-2.022,1.126-4.253,1.13-6.437    c0,0,0-42.411,0-42.411s-0.004-0.43-0.004-0.43c-0.009-0.533-0.037-1.091-0.086-1.622c-0.138-1.498-0.445-2.998-1.041-4.384    c-1.566-3.667-4.732-5.299-8.551-5.77c-0.66-0.081-1.343,0.028-1.945,0.309c-0.597,0.277-1.115,0.724-1.477,1.274    c-0.211,0.32-0.371,0.675-0.47,1.045c-0.053,0.197-0.089,0.402-0.108,0.605c-0.008,0.09-0.013,0.188-0.014,0.278    c-0.01,0.059,0.007,13.972,0,14.031h-14.427c-0.011-0.816,0.026-14.691-0.044-14.979c0.477,0.015,0.962-0.05,1.404-0.236    c0.587-0.24,1.097-0.661,1.443-1.192c0.186-0.285,0.327-0.602,0.412-0.932c0.055-0.213,0.089-0.434,0.099-0.654    c0.012-0.117-0.002-28.312,0.003-28.445c0.799-0.463,1.37-1.293,1.516-2.205c0.025-0.154,0.04-0.314,0.042-0.47    c0.003,0.009-0.002-25.216,0-25.225c0-0.171-0.014-0.347-0.042-0.516c-0.146-0.912-0.717-1.742-1.516-2.205v-28.304    c0-0.056-0.002-0.12-0.005-0.176c-0.013-0.233-0.052-0.467-0.117-0.692c-0.102-0.355-0.267-0.693-0.484-0.991    c-0.417-0.574-1.033-0.998-1.717-1.184c-0.479-0.144-1.043-0.108-1.535-0.111c-0.745-8.638-1.878-17.649-3.444-26.171    c-0.729-3.786-1.448-7.739-2.745-11.373c-0.567-1.533-1.306-3.066-2.527-4.187c-1.519-1.439-3.552-2.173-5.578-2.55    C905.915,65.364,903.816,65.202,901.757,65.158z"/>
	</g>
</g>
</g>
</svg>
